<?xml version="1.0" encoding="UTF-8"?>
<svg xmlns="http://www.w3.org/2000/svg" xmlns:xlink="http://www.w3.org/1999/xlink" width="49px" height="40px" viewBox="0 0 48 40" version="1.1">
<g id="surface1">
<path style=" stroke:none;fill-rule:nonzero;fill:rgb(100%,100%,100%);fill-opacity:1;" d="M 18.113281 22.410156 C 18.28125 19.308594 19.769531 16.570312 22.023438 14.636719 C 24.226562 12.730469 27.191406 11.566406 30.441406 11.566406 C 33.675781 11.566406 36.636719 12.730469 38.84375 14.636719 C 41.097656 16.570312 42.578125 19.308594 42.753906 22.410156 C 42.925781 25.59375 41.667969 28.5625 39.472656 30.761719 C 37.21875 32.992188 34.03125 34.402344 30.441406 34.402344 C 26.851562 34.402344 23.648438 33 21.410156 30.761719 C 19.207031 28.5625 17.949219 25.609375 18.128906 22.425781 Z M 18.113281 22.410156 "/>
<path style=" stroke:none;fill-rule:nonzero;fill:rgb(14.901961%,34.117647%,52.941176%);fill-opacity:1;" d="M 24.855469 22.03125 C 24.941406 20.4375 25.707031 19.03125 26.867188 18.035156 C 28 17.058594 29.519531 16.457031 31.191406 16.457031 C 32.855469 16.457031 34.375 17.054688 35.507812 18.035156 C 36.667969 19.03125 37.429688 20.4375 37.519531 22.03125 C 37.605469 23.667969 36.960938 25.191406 35.832031 26.320312 C 34.675781 27.46875 33.035156 28.191406 31.191406 28.191406 C 29.347656 28.191406 27.699219 27.472656 26.550781 26.320312 C 25.417969 25.191406 24.773438 23.675781 24.863281 22.039062 Z M 24.855469 22.03125 "/>
<path style=" stroke:none;fill-rule:nonzero;fill:rgb(91.764706%,46.27451%,0%);fill-opacity:1;" d="M 14.929688 25.402344 C 14.941406 26.027344 15.136719 27.242188 15.429688 28.183594 C 16.042969 30.191406 17.089844 32.046875 18.539062 33.671875 C 20.027344 35.351562 21.863281 36.699219 23.980469 37.660156 C 26.207031 38.664062 28.621094 39.175781 31.128906 39.175781 C 33.632812 39.175781 36.050781 38.652344 38.273438 37.632812 C 40.390625 36.664062 42.230469 35.316406 43.71875 33.628906 C 45.171875 31.988281 46.214844 30.132812 46.828125 28.125 C 47.136719 27.113281 47.332031 26.085938 47.414062 25.058594 C 47.488281 24.046875 47.457031 23.027344 47.316406 22.003906 C 47.039062 20.023438 46.363281 18.160156 45.332031 16.476562 C 44.386719 14.914062 43.164062 13.558594 41.707031 12.410156 L 41.710938 12.410156 L 27.070312 0.945312 C 27.058594 0.933594 27.046875 0.921875 27.03125 0.914062 C 26.074219 0.164062 24.449219 0.164062 23.402344 0.917969 C 22.332031 1.679688 22.210938 2.941406 23.160156 3.734375 L 23.15625 3.738281 L 29.269531 8.804688 L 10.65625 8.824219 L 10.632812 8.824219 C 9.09375 8.828125 7.613281 9.855469 7.324219 11.160156 C 7.023438 12.484375 8.070312 13.589844 9.671875 13.589844 L 9.671875 13.59375 L 19.101562 13.574219 L 2.226562 26.726562 C 2.207031 26.742188 2.183594 26.757812 2.164062 26.773438 C 0.574219 28.015625 0.0625 30.078125 1.0625 31.378906 C 2.078125 32.703125 4.238281 32.710938 5.84375 31.386719 L 15.023438 23.714844 C 15.023438 23.714844 14.890625 24.75 14.902344 25.367188 Z M 38.585938 28.867188 C 36.691406 30.832031 34.039062 31.953125 31.175781 31.953125 C 28.304688 31.957031 25.648438 30.855469 23.753906 28.894531 C 22.828125 27.933594 22.152344 26.835938 21.730469 25.664062 C 21.316406 24.507812 21.15625 23.285156 21.265625 22.054688 C 21.363281 20.851562 21.714844 19.695312 22.28125 18.660156 C 22.835938 17.640625 23.597656 16.710938 24.53125 15.925781 C 26.375 14.402344 28.71875 13.566406 31.164062 13.566406 C 33.621094 13.5625 35.960938 14.382812 37.808594 15.910156 C 38.742188 16.691406 39.503906 17.613281 40.058594 18.632812 C 40.621094 19.671875 40.976562 20.816406 41.074219 22.03125 C 41.179688 23.261719 41.019531 24.484375 40.609375 25.640625 C 40.1875 26.820312 39.507812 27.914062 38.582031 28.875 Z M 38.585938 28.867188 "/>
</g>
</svg>
