<?xml version="1.0" encoding="UTF-8"?>
<svg xmlns="http://www.w3.org/2000/svg" xmlns:xlink="http://www.w3.org/1999/xlink" width="40px" height="40px" viewBox="0 0 40 40" version="1.1">
<g id="surface1">
<path style=" stroke:none;fill-rule:nonzero;fill:rgb(100%,100%,100%);fill-opacity:1;" d="M 15.09375 22.410156 C 15.234375 19.308594 16.472656 16.570312 18.351562 14.636719 C 20.191406 12.730469 22.65625 11.566406 25.367188 11.566406 C 28.0625 11.566406 30.53125 12.730469 32.371094 14.636719 C 34.246094 16.570312 35.480469 19.308594 35.628906 22.410156 C 35.769531 25.59375 34.722656 28.5625 32.894531 30.761719 C 31.015625 32.992188 28.359375 34.402344 25.367188 34.402344 C 22.375 34.402344 19.707031 33 17.84375 30.761719 C 16.003906 28.5625 14.957031 25.609375 15.105469 22.425781 Z M 15.09375 22.410156 "/>
<path style=" stroke:none;fill-rule:nonzero;fill:rgb(14.901961%,34.117647%,52.941176%);fill-opacity:1;" d="M 20.714844 22.03125 C 20.785156 20.4375 21.421875 19.03125 22.386719 18.035156 C 23.332031 17.058594 24.601562 16.457031 25.992188 16.457031 C 27.378906 16.457031 28.648438 17.054688 29.589844 18.035156 C 30.554688 19.03125 31.191406 20.4375 31.265625 22.03125 C 31.339844 23.667969 30.800781 25.191406 29.859375 26.320312 C 28.894531 27.46875 27.53125 28.191406 25.992188 28.191406 C 24.457031 28.191406 23.085938 27.472656 22.125 26.320312 C 21.183594 25.191406 20.644531 23.675781 20.71875 22.039062 Z M 20.714844 22.03125 "/>
<path style=" stroke:none;fill-rule:nonzero;fill:rgb(91.764706%,46.27451%,0%);fill-opacity:1;" d="M 12.441406 25.402344 C 12.449219 26.027344 12.613281 27.242188 12.855469 28.183594 C 13.371094 30.191406 14.242188 32.046875 15.449219 33.671875 C 16.691406 35.351562 18.21875 36.699219 19.984375 37.660156 C 21.839844 38.664062 23.851562 39.175781 25.941406 39.175781 C 28.027344 39.175781 30.042969 38.652344 31.894531 37.632812 C 33.660156 36.664062 35.191406 35.316406 36.429688 33.628906 C 37.644531 31.988281 38.511719 30.132812 39.023438 28.125 C 39.28125 27.113281 39.445312 26.085938 39.511719 25.058594 C 39.574219 24.046875 39.546875 23.027344 39.429688 22.003906 C 39.199219 20.023438 38.636719 18.160156 37.773438 16.476562 C 36.988281 14.914062 35.96875 13.558594 34.757812 12.410156 L 22.558594 0.945312 C 22.546875 0.933594 22.539062 0.921875 22.527344 0.914062 C 21.726562 0.164062 20.375 0.164062 19.5 0.917969 C 18.609375 1.679688 18.507812 2.941406 19.300781 3.734375 L 19.296875 3.738281 L 24.390625 8.804688 L 8.882812 8.824219 L 8.859375 8.824219 C 7.578125 8.828125 6.34375 9.855469 6.105469 11.160156 C 5.851562 12.484375 6.722656 13.589844 8.0625 13.589844 L 8.058594 13.59375 L 15.917969 13.574219 L 1.855469 26.726562 C 1.835938 26.742188 1.820312 26.757812 1.800781 26.773438 C 0.476562 28.015625 0.0507812 30.078125 0.886719 31.378906 C 1.734375 32.703125 3.53125 32.710938 4.871094 31.386719 L 12.519531 23.714844 C 12.519531 23.714844 12.410156 24.75 12.417969 25.367188 Z M 32.15625 28.867188 C 30.578125 30.832031 28.363281 31.953125 25.980469 31.953125 C 23.585938 31.957031 21.375 30.855469 19.796875 28.894531 C 19.023438 27.933594 18.457031 26.835938 18.109375 25.664062 C 17.765625 24.507812 17.632812 23.285156 17.71875 22.054688 C 17.804688 20.851562 18.097656 19.695312 18.566406 18.660156 C 19.027344 17.640625 19.664062 16.710938 20.441406 15.925781 C 21.980469 14.402344 23.929688 13.566406 25.972656 13.566406 C 28.019531 13.5625 29.96875 14.382812 31.507812 15.910156 C 32.285156 16.691406 32.917969 17.613281 33.382812 18.632812 C 33.851562 19.671875 34.144531 20.816406 34.230469 22.03125 C 34.316406 23.261719 34.183594 24.484375 33.839844 25.640625 C 33.488281 26.820312 32.921875 27.914062 32.152344 28.875 Z M 32.15625 28.867188 "/>
</g>
</svg>
