<?xml version="1.0" encoding="UTF-8"?>
<svg xmlns="http://www.w3.org/2000/svg" xmlns:xlink="http://www.w3.org/1999/xlink" width="40px" height="40px" viewBox="0 0 40 40" version="1.1">
<g id="surface1">
<path style=" stroke:none;fill-rule:nonzero;fill:rgb(14.901961%,30.196078%,89.411765%);fill-opacity:1;" d="M 5.574219 36 L 2.363281 0 L 37.636719 0 L 34.421875 35.996094 L 19.976562 40 Z M 5.574219 36 "/>
<path style=" stroke:none;fill-rule:nonzero;fill:rgb(16.078431%,39.607843%,94.509804%);fill-opacity:1;" d="M 31.671875 33.703125 L 34.417969 2.945312 L 20 2.945312 L 20 36.9375 Z M 31.671875 33.703125 "/>
<path style=" stroke:none;fill-rule:nonzero;fill:rgb(92.156863%,92.156863%,92.156863%);fill-opacity:1;" d="M 9.722656 16.296875 L 10.117188 20.710938 L 20 20.710938 L 20 16.296875 Z M 9.328125 11.773438 L 20 11.773438 L 20 7.359375 L 8.929688 7.359375 Z M 20 27.761719 L 19.980469 27.769531 L 15.0625 26.441406 L 14.75 22.917969 L 10.316406 22.917969 L 10.933594 29.851562 L 19.980469 32.363281 L 20 32.355469 Z M 20 27.761719 "/>
<path style=" stroke:none;fill-rule:nonzero;fill:rgb(100%,100%,100%);fill-opacity:1;" d="M 19.984375 16.296875 L 19.984375 20.710938 L 25.421875 20.710938 L 24.910156 26.4375 L 19.984375 27.765625 L 19.984375 32.359375 L 29.035156 29.851562 L 29.101562 29.105469 L 30.140625 17.480469 L 30.25 16.296875 L 31.046875 7.359375 L 19.984375 7.359375 L 19.984375 11.773438 L 26.207031 11.773438 L 25.804688 16.296875 Z M 19.984375 16.296875 "/>
</g>
</svg>
