<?xml version="1.0" encoding="UTF-8"?>
<svg xmlns="http://www.w3.org/2000/svg" xmlns:xlink="http://www.w3.org/1999/xlink" width="40px" height="40px" viewBox="0 0 40 40" version="1.1">
<g id="surface1">
<path style=" stroke:none;fill-rule:nonzero;fill:rgb(89.019608%,30.980392%,14.901961%);fill-opacity:1;" d="M 5.546875 35.9375 L 2.34375 0 L 37.578125 0 L 34.375 35.9375 L 19.921875 40 "/>
<path style=" stroke:none;fill-rule:nonzero;fill:rgb(93.72549%,39.607843%,16.470588%);fill-opacity:1;" d="M 20 36.875 L 31.640625 33.671875 L 34.375 2.890625 L 20 2.890625 "/>
<path style=" stroke:none;fill-rule:nonzero;fill:rgb(92.156863%,92.156863%,92.156863%);fill-opacity:1;" d="M 20 16.25 L 14.140625 16.25 L 13.75 11.71875 L 20 11.71875 L 20 7.34375 L 8.90625 7.34375 L 8.984375 8.515625 L 10.078125 20.703125 L 20 20.703125 Z M 20 27.734375 L 19.921875 27.734375 L 15 26.40625 L 14.6875 22.890625 L 10.3125 22.890625 L 10.859375 29.84375 L 19.921875 32.34375 L 20 32.34375 Z M 20 27.734375 "/>
<path style=" stroke:none;fill-rule:nonzero;fill:rgb(100%,100%,100%);fill-opacity:1;" d="M 19.921875 16.25 L 19.921875 20.703125 L 25.390625 20.703125 L 24.84375 26.40625 L 19.921875 27.734375 L 19.921875 32.34375 L 28.984375 29.84375 L 29.0625 29.0625 L 30.078125 17.421875 L 30.234375 16.25 Z M 19.921875 7.34375 L 19.921875 11.71875 L 30.625 11.71875 L 30.703125 10.78125 L 30.9375 8.515625 L 31.015625 7.34375 Z M 19.921875 7.34375 "/>
</g>
</svg>
