<?xml version="1.0" encoding="UTF-8"?>
<svg xmlns="http://www.w3.org/2000/svg" xmlns:xlink="http://www.w3.org/1999/xlink" width="40px" height="40px" viewBox="0 0 40 40" version="1.1">
<g id="surface1">
<path style=" stroke:none;fill-rule:nonzero;fill:rgb(91.372549%,79.215686%,19.607843%);fill-opacity:1;" d="M 3.347656 35.808594 L 0 0.0664062 L 40 0.136719 L 36.457031 35.808594 L 20.152344 39.933594 Z M 3.347656 35.808594 "/>
<path style=" stroke:none;fill-rule:nonzero;fill:rgb(100%,87.058824%,14.509804%);fill-opacity:1;" d="M 20.152344 36.480469 L 20.152344 3.472656 L 36.625 3.519531 L 33.6875 33.054688 Z M 20.152344 36.480469 "/>
<path style=" stroke:none;fill-rule:nonzero;fill:rgb(100%,100%,100%);fill-opacity:1;" d="M 18.386719 7.390625 L 14.03125 7.390625 L 14.03125 29.359375 L 10.644531 28.796875 L 10.644531 25.839844 L 6.613281 25.277344 L 6.613281 31.894531 L 18.386719 34.574219 Z M 21.652344 7.390625 L 33.710938 7.390625 L 32.902344 11.601562 L 26.257812 11.601562 L 26.257812 18.511719 L 32.902344 18.511719 L 32.097656 32.460938 L 21.652344 34.574219 L 21.652344 30.207031 L 28.710938 28.09375 L 29.117188 22.320312 L 21.652344 23.261719 Z M 21.652344 7.390625 "/>
</g>
</svg>
