<?xml version="1.0" encoding="UTF-8"?>
<svg xmlns="http://www.w3.org/2000/svg" xmlns:xlink="http://www.w3.org/1999/xlink" width="40px" height="40px" viewBox="0 0 40 40" version="1.1">
<g id="surface1">
<path style=" stroke:none;fill-rule:nonzero;fill:rgb(90.588235%,43.529412%,0%);fill-opacity:1;" d="M 29.84375 31.539062 L 29.691406 31.539062 L 29.691406 31.453125 L 30.097656 31.453125 L 30.097656 31.539062 L 29.949219 31.539062 L 29.949219 31.957031 L 29.84375 31.957031 Z M 30.652344 31.558594 L 30.648438 31.558594 L 30.5 31.957031 L 30.429688 31.957031 L 30.28125 31.558594 L 30.28125 31.957031 L 30.183594 31.957031 L 30.183594 31.453125 L 30.328125 31.453125 L 30.464844 31.8125 L 30.601562 31.453125 L 30.75 31.453125 L 30.75 31.957031 L 30.652344 31.957031 Z M 30.652344 31.558594 "/>
<path style=" stroke:none;fill-rule:nonzero;fill:rgb(32.54902%,50.980392%,63.137255%);fill-opacity:1;" d="M 16.355469 21.214844 C 16.355469 21.214844 15.304688 21.824219 17.101562 22.03125 C 19.273438 22.277344 20.386719 22.242188 22.78125 21.789062 C 22.78125 21.789062 23.410156 22.183594 24.289062 22.527344 C 18.921875 24.828125 12.136719 22.394531 16.355469 21.214844 M 15.699219 18.210938 C 15.699219 18.210938 14.523438 19.082031 16.316406 19.265625 C 18.640625 19.507812 20.472656 19.527344 23.648438 18.914062 C 23.648438 18.914062 24.085938 19.359375 24.777344 19.605469 C 18.285156 21.503906 11.050781 19.753906 15.699219 18.210938 "/>
<path style=" stroke:none;fill-rule:nonzero;fill:rgb(90.588235%,43.529412%,0%);fill-opacity:1;" d="M 21.230469 13.117188 C 22.554688 14.640625 20.882812 16.011719 20.882812 16.011719 C 20.882812 16.011719 24.242188 14.277344 22.699219 12.105469 C 21.257812 10.078125 20.152344 9.074219 26.136719 5.601562 C 26.136719 5.601562 16.746094 7.949219 21.230469 13.117188 "/>
<path style=" stroke:none;fill-rule:nonzero;fill:rgb(32.54902%,50.980392%,63.137255%);fill-opacity:1;" d="M 28.332031 23.4375 C 28.332031 23.4375 29.109375 24.074219 27.476562 24.570312 C 24.378906 25.507812 14.578125 25.792969 11.855469 24.605469 C 10.875 24.179688 12.710938 23.589844 13.289062 23.464844 C 13.890625 23.335938 14.234375 23.359375 14.234375 23.359375 C 13.144531 22.59375 7.199219 24.867188 11.214844 25.515625 C 22.164062 27.292969 31.171875 24.71875 28.332031 23.4375 M 16.859375 15.097656 C 16.859375 15.097656 11.871094 16.285156 15.09375 16.714844 C 16.453125 16.894531 19.164062 16.855469 21.6875 16.644531 C 23.75 16.46875 25.824219 16.097656 25.824219 16.097656 C 25.824219 16.097656 25.09375 16.410156 24.570312 16.769531 C 19.507812 18.101562 9.726562 17.480469 12.542969 16.121094 C 14.921875 14.96875 16.859375 15.097656 16.859375 15.097656 M 25.800781 20.097656 C 30.949219 17.425781 28.570312 14.855469 26.910156 15.199219 C 26.5 15.285156 26.320312 15.359375 26.320312 15.359375 C 26.320312 15.359375 26.472656 15.121094 26.757812 15.019531 C 30.046875 13.863281 32.574219 18.425781 25.699219 20.234375 C 25.699219 20.234375 25.777344 20.164062 25.800781 20.097656 "/>
<path style=" stroke:none;fill-rule:nonzero;fill:rgb(90.588235%,43.529412%,0%);fill-opacity:1;" d="M 22.699219 0 C 22.699219 0 25.550781 2.851562 19.996094 7.234375 C 15.542969 10.753906 18.980469 12.757812 19.992188 15.050781 C 17.394531 12.703125 15.488281 10.640625 16.765625 8.71875 C 18.644531 5.898438 23.847656 4.527344 22.699219 0 "/>
<path style=" stroke:none;fill-rule:nonzero;fill:rgb(32.54902%,50.980392%,63.137255%);fill-opacity:1;" d="M 17.363281 27.34375 C 22.304688 27.660156 29.890625 27.171875 30.070312 24.832031 C 30.070312 24.832031 29.726562 25.71875 25.988281 26.421875 C 21.769531 27.214844 16.570312 27.125 13.484375 26.613281 C 13.484375 26.613281 14.117188 27.136719 17.363281 27.34375 "/>
<path style=" stroke:none;fill-rule:nonzero;fill:rgb(90.588235%,43.529412%,0%);fill-opacity:1;" d="M 16.554688 36.277344 C 16.089844 36.679688 15.597656 36.910156 15.15625 36.910156 C 14.523438 36.910156 14.183594 36.53125 14.183594 35.925781 C 14.183594 35.269531 14.546875 34.789062 16.011719 34.789062 L 16.554688 34.789062 L 16.554688 36.277344 M 17.839844 37.726562 L 17.839844 33.238281 C 17.839844 32.089844 17.1875 31.332031 15.609375 31.332031 C 14.6875 31.332031 13.878906 31.558594 13.226562 31.851562 L 13.414062 32.644531 C 13.929688 32.457031 14.597656 32.277344 15.253906 32.277344 C 16.164062 32.277344 16.554688 32.644531 16.554688 33.402344 L 16.554688 33.96875 L 16.101562 33.96875 C 13.894531 33.96875 12.898438 34.828125 12.898438 36.113281 C 12.898438 37.222656 13.554688 37.855469 14.789062 37.855469 C 15.582031 37.855469 16.175781 37.527344 16.730469 37.046875 L 16.832031 37.726562 Z M 22.132812 37.726562 L 20.527344 37.726562 L 18.597656 31.445312 L 20 31.445312 L 21.195312 35.304688 L 21.460938 36.464844 C 22.070312 34.789062 22.496094 33.085938 22.710938 31.445312 L 24.074219 31.445312 C 23.707031 33.515625 23.050781 35.785156 22.132812 37.726562 M 28.285156 36.277344 C 27.816406 36.679688 27.324219 36.910156 26.882812 36.910156 C 26.253906 36.910156 25.914062 36.53125 25.914062 35.925781 C 25.914062 35.269531 26.277344 34.789062 27.742188 34.789062 L 28.285156 34.789062 L 28.285156 36.277344 M 29.570312 37.726562 L 29.570312 33.238281 C 29.570312 32.089844 28.914062 31.332031 27.339844 31.332031 C 26.417969 31.332031 25.609375 31.558594 24.953125 31.851562 L 25.144531 32.644531 C 25.660156 32.457031 26.328125 32.277344 26.984375 32.277344 C 27.894531 32.277344 28.285156 32.644531 28.285156 33.402344 L 28.285156 33.96875 L 27.832031 33.96875 C 25.621094 33.96875 24.625 34.828125 24.625 36.113281 C 24.625 37.222656 25.28125 37.855469 26.515625 37.855469 C 27.3125 37.855469 27.90625 37.527344 28.460938 37.046875 L 28.5625 37.726562 Z M 11.488281 38.792969 C 11.121094 39.328125 10.527344 39.753906 9.878906 39.992188 L 9.246094 39.246094 C 9.738281 38.992188 10.160156 38.582031 10.359375 38.203125 C 10.527344 37.863281 10.597656 37.429688 10.597656 36.382812 L 10.597656 29.210938 L 11.964844 29.210938 L 11.964844 36.285156 C 11.964844 37.679688 11.851562 38.246094 11.488281 38.792969 "/>
</g>
</svg>
