<?xml version="1.0" encoding="UTF-8"?>
<svg xmlns="http://www.w3.org/2000/svg" xmlns:xlink="http://www.w3.org/1999/xlink" width="65px" height="40px" viewBox="0 0 65 40" version="1.1">
<g id="surface1">
<path style="fill:none;stroke-width:10;stroke-linecap:butt;stroke-linejoin:miter;stroke:rgb(0%,0%,0%);stroke-opacity:1;stroke-miterlimit:4;" d="M 15 5 L 193 5 C 198.525 5 203 9.475 203 15 L 203 113 C 203 118.525 198.525 123 193 123 L 15 123 C 9.475 123 5 118.525 5 113 L 5 15 C 5 9.475 9.475 5 15 5 Z M 15 5 " transform="matrix(0.3125,0,0,0.3125,0,0)"/>
<path style=" stroke:none;fill-rule:nonzero;fill:rgb(0%,0%,0%);fill-opacity:1;" d="M 9.375 30.625 L 9.375 9.375 L 15.625 9.375 L 21.875 17.1875 L 28.125 9.375 L 34.375 9.375 L 34.375 30.625 L 28.125 30.625 L 28.125 18.4375 L 21.875 26.25 L 15.625 18.4375 L 15.625 30.625 Z M 48.4375 30.625 L 39.0625 20.3125 L 45.3125 20.3125 L 45.3125 9.375 L 51.5625 9.375 L 51.5625 20.3125 L 57.8125 20.3125 Z M 48.4375 30.625 "/>
</g>
</svg>
