<?xml version="1.0" encoding="UTF-8"?>
<svg xmlns="http://www.w3.org/2000/svg" xmlns:xlink="http://www.w3.org/1999/xlink" width="40px" height="40px" viewBox="0 0 40 40" version="1.1">
<g id="surface1">
<path style=" stroke:none;fill-rule:nonzero;fill:rgb(0%,0%,0%);fill-opacity:1;" d="M 7 11.941406 L 7 4.960938 C 7 3.277344 8.242188 2.15625 10.011719 2.15625 L 27.867188 2.15625 C 28.453125 2.15625 28.957031 2.316406 29.371094 2.710938 L 33.886719 7.03125 C 34.296875 7.433594 34.464844 7.960938 34.464844 8.519531 L 34.464844 21.855469 L 35.171875 21.847656 L 35.171875 8.179688 C 35.171875 7.59375 34.929688 7.046875 34.492188 6.628906 L 29.730469 2.148438 C 29.296875 1.742188 28.695312 1.507812 28.078125 1.507812 L 9.710938 1.507812 C 7.851562 1.507812 6.332031 2.929688 6.332031 4.679688 L 6.332031 12.246094 Z M 6.332031 26.027344 L 6.332031 35.320312 C 6.332031 37.070312 7.851562 38.492188 9.710938 38.492188 L 14.007812 38.492188 L 14.007812 37.84375 L 10.011719 37.84375 C 8.246094 37.84375 7 36.714844 7 35.039062 L 7 26.324219 Z M 27.261719 32.996094 "/>
<path style=" stroke:none;fill-rule:nonzero;fill:rgb(0%,0%,0%);fill-opacity:1;" d="M 32.8125 7.664062 L 28.648438 7.664062 L 28.648438 3.585938 C 28.648438 3.285156 28.648438 3.042969 28.335938 3.042969 C 28.011719 3.042969 28.019531 3.289062 28.019531 3.585938 L 28.019531 7.714844 C 28.019531 8.019531 28.273438 8.257812 28.597656 8.257812 L 32.8125 8.257812 C 33.132812 8.257812 33.390625 8.265625 33.390625 7.960938 C 33.390625 7.660156 33.125 7.664062 32.8125 7.664062 Z M 32.8125 7.664062 "/>
<path style=" stroke:none;fill-rule:nonzero;fill:rgb(13.72549%,12.156863%,12.54902%);fill-opacity:1;" d="M 17.414062 27.105469 C 16.375 27.105469 16.15625 27.523438 16.15625 27.867188 L 16.15625 32.171875 C 16.15625 32.515625 16.375 32.933594 17.414062 32.933594 C 18.449219 32.933594 18.667969 32.515625 18.667969 32.171875 L 18.667969 27.867188 C 18.667969 27.523438 18.449219 27.105469 17.414062 27.105469 Z M 16.820312 28.078125 C 16.820312 27.738281 17 27.59375 17.414062 27.59375 C 17.824219 27.59375 18.003906 27.738281 18.003906 28.078125 L 18.003906 31.96875 C 18.003906 32.304688 17.824219 32.453125 17.414062 32.453125 C 17 32.453125 16.820312 32.304688 16.820312 31.96875 Z M 20.605469 22.941406 L 19.9375 22.941406 L 19.9375 26.414062 L 19.492188 26.414062 L 19.492188 26.902344 L 19.9375 26.902344 L 19.9375 33.628906 L 20.605469 33.628906 L 20.605469 26.902344 L 21.640625 26.902344 L 21.640625 26.414062 L 20.605469 26.414062 Z M 23.195312 27.105469 C 22.160156 27.105469 21.941406 27.523438 21.941406 27.867188 L 21.941406 32.171875 C 21.941406 32.515625 22.160156 32.933594 23.195312 32.933594 C 24.234375 32.933594 24.449219 32.515625 24.449219 32.171875 L 24.449219 31.480469 L 23.78125 31.480469 L 23.78125 31.96875 C 23.78125 32.304688 23.601562 32.453125 23.1875 32.453125 C 22.777344 32.453125 22.59375 32.304688 22.59375 31.96875 L 22.59375 30.789062 C 22.761719 30.832031 22.957031 30.855469 23.1875 30.855469 C 24.226562 30.855469 24.441406 30.4375 24.441406 30.09375 L 24.441406 27.875 C 24.449219 27.523438 24.234375 27.105469 23.195312 27.105469 Z M 22.601562 28.078125 C 22.601562 27.738281 22.78125 27.59375 23.195312 27.59375 C 23.609375 27.59375 23.789062 27.738281 23.789062 28.078125 L 23.789062 29.882812 C 23.789062 30.21875 23.609375 30.367188 23.195312 30.367188 C 22.78125 30.367188 22.601562 30.21875 22.601562 29.882812 Z M 26.726562 27.105469 C 25.691406 27.105469 25.472656 27.523438 25.472656 27.867188 L 25.472656 35.566406 L 26.140625 35.566406 L 26.140625 32.871094 C 26.304688 32.910156 26.5 32.933594 26.734375 32.933594 C 27.769531 32.933594 27.988281 32.515625 27.988281 32.171875 L 27.988281 27.867188 C 27.988281 27.523438 27.769531 27.105469 26.726562 27.105469 Z M 26.140625 28.078125 C 26.140625 27.738281 26.320312 27.59375 26.734375 27.59375 C 27.148438 27.59375 27.328125 27.738281 27.328125 28.078125 L 27.328125 31.96875 C 27.328125 32.304688 27.148438 32.453125 26.734375 32.453125 C 26.320312 32.453125 26.140625 32.304688 26.140625 31.96875 Z M 30.265625 27.105469 C 29.226562 27.105469 29.011719 27.523438 29.011719 27.867188 L 29.011719 28.558594 L 29.679688 28.558594 L 29.679688 28.070312 C 29.679688 27.734375 29.859375 27.585938 30.273438 27.585938 C 30.683594 27.585938 30.867188 27.734375 30.867188 28.070312 L 30.867188 29.246094 C 30.699219 29.207031 30.503906 29.183594 30.273438 29.183594 C 29.234375 29.183594 29.019531 29.601562 29.019531 29.945312 L 29.019531 32.164062 C 29.019531 32.511719 29.234375 32.925781 30.273438 32.925781 C 31.308594 32.925781 31.527344 32.511719 31.527344 32.164062 L 31.527344 27.859375 C 31.527344 27.523438 31.300781 27.105469 30.265625 27.105469 Z M 29.671875 30.15625 C 29.671875 29.820312 29.851562 29.671875 30.265625 29.671875 C 30.679688 29.671875 30.859375 29.820312 30.859375 30.15625 L 30.859375 31.960938 C 30.859375 32.296875 30.679688 32.445312 30.265625 32.445312 C 29.851562 32.445312 29.671875 32.296875 29.671875 31.960938 Z M 34.449219 27.167969 C 34.285156 27.128906 34.089844 27.105469 33.855469 27.105469 C 32.820312 27.105469 32.601562 27.523438 32.601562 27.867188 L 32.601562 32.171875 C 32.601562 32.515625 32.820312 32.933594 33.855469 32.933594 C 34.890625 32.933594 35.109375 32.515625 35.109375 32.171875 L 35.109375 22.941406 L 34.441406 22.941406 L 34.441406 27.167969 Z M 33.269531 28.078125 C 33.269531 27.738281 33.449219 27.59375 33.863281 27.59375 C 34.277344 27.59375 34.457031 27.738281 34.457031 28.078125 L 34.457031 31.96875 C 34.457031 32.304688 34.277344 32.453125 33.863281 32.453125 C 33.449219 32.453125 33.269531 32.304688 33.269531 31.96875 Z M 36.824219 27.105469 L 36.152344 27.105469 L 36.152344 28.492188 L 35.410156 28.492188 L 35.410156 28.980469 L 36.152344 28.980469 L 36.152344 30.367188 L 36.824219 30.367188 L 36.824219 28.980469 L 37.558594 28.980469 L 37.558594 28.492188 L 36.824219 28.492188 Z M 39.265625 28.492188 L 39.265625 27.105469 L 38.59375 27.105469 L 38.59375 28.492188 L 37.851562 28.492188 L 37.851562 28.980469 L 38.59375 28.980469 L 38.59375 30.367188 L 39.265625 30.367188 L 39.265625 28.980469 L 40 28.980469 L 40 28.492188 Z M 14.59375 22.941406 C 13.558594 22.941406 13.339844 23.359375 13.339844 23.703125 L 13.339844 36.773438 L 14.007812 36.773438 L 14.007812 23.914062 C 14.007812 23.574219 14.191406 23.429688 14.601562 23.429688 C 15.015625 23.429688 15.195312 23.574219 15.195312 23.914062 L 15.195312 32.933594 L 15.863281 32.933594 L 15.863281 23.703125 C 15.855469 23.359375 15.640625 22.941406 14.59375 22.941406 Z M 14.59375 22.941406 "/>
<path style=" stroke:none;fill-rule:nonzero;fill:rgb(56.470588%,89.803922%,60.392157%);fill-opacity:1;" d="M 6.707031 12.738281 C 7.347656 12.148438 8.261719 11.984375 9.097656 11.738281 C 10.050781 11.6875 11.003906 11.964844 11.867188 12.335938 C 12.242188 12.476562 12.222656 12.894531 12.304688 13.210938 C 12.035156 13.265625 11.761719 13.316406 11.492188 13.378906 C 11.613281 13.203125 11.726562 13.035156 11.839844 12.859375 C 11.832031 12.691406 11.621094 12.625 11.515625 12.507812 L 11.085938 12.78125 L 10.792969 12.550781 C 10.53125 12.585938 10.246094 12.621094 10 12.484375 C 9.578125 12.308594 9.125 12.175781 8.660156 12.21875 C 8.449219 12.300781 8.285156 12.457031 8.113281 12.589844 C 8.113281 12.519531 8.121094 12.378906 8.121094 12.308594 C 8.023438 12.414062 7.925781 12.519531 7.835938 12.632812 C 7.1875 12.695312 6.886719 13.324219 7.03125 13.867188 C 6.894531 13.964844 6.753906 14.070312 6.617188 14.167969 C 6.769531 13.894531 6.894531 13.589844 6.722656 13.296875 C 6.242188 13.429688 6.203125 13.921875 5.988281 14.273438 C 5.761719 14.664062 5.378906 14.957031 5.199219 15.367188 C 5.183594 15.59375 5.21875 15.8125 5.242188 16.035156 C 5.0625 15.988281 4.882812 15.945312 4.710938 15.894531 C 5.160156 14.746094 5.707031 13.5625 6.707031 12.738281 Z M 6.707031 12.738281 "/>
<path style=" stroke:none;fill-rule:nonzero;fill:rgb(36.078431%,80.784314%,45.490196%);fill-opacity:1;" d="M 8.113281 12.597656 C 8.292969 12.464844 8.449219 12.300781 8.660156 12.226562 C 9.125 12.183594 9.578125 12.316406 10 12.492188 C 9.9375 12.738281 9.847656 12.980469 9.726562 13.203125 C 9.367188 13.027344 9.007812 12.835938 8.667969 12.632812 L 8.871094 13.015625 C 8.796875 13.113281 8.714844 13.203125 8.636719 13.304688 C 8.488281 13.121094 8.339844 12.9375 8.195312 12.746094 C 8.144531 13.019531 7.925781 13.226562 7.625 13.070312 C 7.691406 12.921875 7.757812 12.78125 7.828125 12.640625 C 7.917969 12.527344 8.015625 12.421875 8.113281 12.316406 C 8.121094 12.378906 8.113281 12.519531 8.113281 12.597656 Z M 8.113281 12.597656 "/>
<path style=" stroke:none;fill-rule:nonzero;fill:rgb(45.882353%,83.921569%,43.529412%);fill-opacity:1;" d="M 10 12.484375 C 10.246094 12.621094 10.523438 12.585938 10.792969 12.550781 L 11.085938 12.78125 L 11.515625 12.507812 C 11.613281 12.625 11.832031 12.691406 11.839844 12.859375 C 11.734375 13.035156 11.613281 13.210938 11.492188 13.378906 C 11.425781 13.394531 11.289062 13.421875 11.230469 13.445312 C 11.367188 13.597656 11.5 13.753906 11.636719 13.902344 C 11.066406 13.929688 10.652344 13.5625 10.214844 13.296875 C 9.816406 13.351562 9.53125 13.753906 9.121094 13.796875 C 8.917969 13.710938 8.730469 13.597656 8.539062 13.484375 C 8.472656 13.691406 8.429688 13.902344 8.300781 14.078125 C 8.113281 14.199219 7.871094 14.199219 7.65625 14.253906 C 7.660156 14.34375 7.675781 14.445312 7.683594 14.535156 C 7.453125 14.324219 7.167969 14.128906 6.835938 14.269531 C 7.074219 14.5 6.714844 14.59375 6.550781 14.699219 C 6.226562 14.867188 5.867188 15.085938 5.828125 15.464844 C 5.738281 15.683594 5.835938 16.023438 5.574219 16.140625 C 5.265625 16.21875 4.949219 16.171875 4.640625 16.164062 C 4.664062 16.09375 4.703125 15.960938 4.726562 15.886719 C 4.90625 15.9375 5.085938 15.980469 5.257812 16.03125 C 5.226562 15.804688 5.191406 15.585938 5.214844 15.359375 C 5.394531 14.953125 5.777344 14.65625 6 14.269531 C 6.21875 13.914062 6.257812 13.421875 6.738281 13.289062 C 6.910156 13.585938 6.78125 13.886719 6.632812 14.164062 C 6.769531 14.058594 6.902344 13.957031 7.046875 13.859375 C 6.902344 13.316406 7.203125 12.691406 7.851562 12.625 C 7.78125 12.765625 7.714844 12.914062 7.648438 13.054688 C 7.941406 13.210938 8.164062 13.007812 8.21875 12.730469 C 8.359375 12.921875 8.511719 13.105469 8.660156 13.289062 C 8.734375 13.191406 8.8125 13.097656 8.894531 13 L 8.691406 12.621094 C 9.035156 12.824219 9.390625 13.007812 9.75 13.191406 C 9.847656 12.980469 9.9375 12.738281 10 12.484375 M 7 16.964844 C 7.167969 16.996094 7.324219 17.023438 7.488281 17.058594 C 7.300781 17.53125 7.039062 18.007812 7.070312 18.53125 C 7.167969 18.867188 7.464844 19.121094 7.691406 19.398438 C 7.363281 19.488281 6.902344 19.417969 6.679688 19.707031 C 6.542969 20.269531 7.089844 20.59375 7.445312 20.941406 C 6.933594 20.765625 6.363281 20.511719 6.183594 19.980469 C 6.429688 19.695312 6.738281 19.460938 7.0625 19.234375 C 6.59375 18.574219 6.390625 17.601562 7 16.964844 M 12.207031 18.15625 C 12.328125 18.257812 12.453125 18.355469 12.574219 18.445312 C 12.589844 18.636719 12.605469 18.832031 12.613281 19.023438 C 12.402344 18.769531 12.214844 18.496094 12.207031 18.15625 M 15.40625 18.304688 C 15.535156 18.136719 15.753906 18.152344 15.886719 18.296875 C 16.144531 18.609375 16.285156 18.976562 16.457031 19.328125 C 16.675781 19.339844 16.894531 19.355469 17.105469 19.371094 C 16.675781 19.515625 16.269531 19.742188 16.210938 20.207031 C 16.03125 19.96875 16.292969 19.75 16.398438 19.53125 C 16.15625 19.058594 15.570312 18.820312 15.40625 18.304688 M 9.277344 18.609375 L 9.40625 18.546875 C 9.425781 18.863281 9.585938 19.226562 9.335938 19.496094 C 9.089844 19.476562 8.847656 19.460938 8.609375 19.417969 C 8.929688 19.222656 9.171875 18.976562 9.277344 18.609375 M 12.613281 19.03125 C 12.792969 19.257812 12.996094 19.453125 13.21875 19.636719 C 13.460938 19.375 13.996094 18.960938 14.210938 19.453125 C 13.851562 19.617188 13.402344 19.734375 13.28125 20.144531 C 13.28125 20.160156 13.273438 20.179688 13.273438 20.195312 C 13.324219 20.554688 13.46875 20.898438 13.582031 21.242188 C 12.753906 20.742188 13.25 19.664062 12.613281 19.03125 M 17.105469 19.128906 C 17.457031 19.164062 17.832031 19.242188 18.101562 19.488281 C 17.765625 19.46875 17.417969 19.480469 17.105469 19.371094 Z M 16.21875 20.949219 C 16.644531 21.125 17.066406 21.3125 17.515625 21.453125 C 17.773438 21.355469 18.132812 20.828125 18.34375 21.214844 C 18.011719 21.496094 17.554688 21.785156 17.089844 21.6875 C 16.730469 21.527344 16.496094 21.203125 16.21875 20.949219 M 4.296875 21.011719 C 4.378906 21.023438 4.535156 21.046875 4.628906 21.054688 C 4.988281 21.835938 5.003906 22.746094 5.5 23.476562 C 5.785156 23.914062 6.015625 24.371094 6.289062 24.816406 C 6.574219 25.273438 7.046875 25.582031 7.488281 25.902344 C 8.4375 26.554688 10 26.457031 10.667969 25.492188 C 11.09375 24.632812 10.5625 23.722656 10.195312 22.933594 C 9.5625 22.003906 7.917969 22.710938 7.960938 23.722656 C 7.773438 22.714844 9.148438 21.863281 10.066406 22.378906 C 10.71875 22.773438 10.898438 23.519531 11.15625 24.160156 C 11.457031 24.929688 11.011719 25.835938 10.238281 26.175781 C 9.636719 26.535156 8.902344 26.394531 8.234375 26.394531 C 7.316406 26.351562 6.722656 25.65625 6.128906 25.097656 C 5.550781 24.433594 5.175781 23.644531 4.726562 22.898438 C 4.484375 22.300781 4.347656 21.660156 4.296875 21.011719 M 9.164062 23.589844 C 9.269531 23.703125 9.351562 23.828125 9.457031 23.949219 C 9.203125 24.257812 8.789062 24.246094 8.421875 24.195312 C 8.269531 24.039062 8.113281 23.886719 7.960938 23.730469 C 8.324219 23.933594 8.730469 24.351562 9.179688 24.089844 C 9.164062 23.921875 9.164062 23.757812 9.164062 23.589844 Z M 9.164062 23.589844 "/>
<path style=" stroke:none;fill-rule:nonzero;fill:rgb(56.078431%,90.588235%,44.705882%);fill-opacity:1;" d="M 9.105469 13.796875 C 9.515625 13.753906 9.804688 13.351562 10.199219 13.296875 C 10.644531 13.570312 11.058594 13.929688 11.621094 13.902344 C 11.484375 13.746094 11.351562 13.589844 11.214844 13.445312 C 11.28125 13.429688 11.417969 13.394531 11.476562 13.378906 C 11.75 13.316406 12.019531 13.265625 12.289062 13.210938 C 12.355469 13.449219 12.425781 13.699219 12.507812 13.9375 C 12.378906 14.058594 12.25 14.183594 12.117188 14.304688 C 12.394531 14.664062 12.648438 15.042969 12.925781 15.402344 C 13.507812 15.253906 13.875 15.777344 14.128906 16.183594 C 13.609375 16.15625 13.023438 16.148438 12.621094 15.796875 C 12.371094 15.585938 12.132812 15.367188 11.867188 15.164062 L 11.394531 15.289062 C 11.269531 15 11.191406 14.621094 10.800781 14.550781 C 10.832031 14.699219 10.871094 14.839844 10.898438 14.988281 C 10.667969 15.113281 10.410156 15.171875 10.148438 15.097656 C 10.253906 14.894531 10.367188 14.699219 10.480469 14.492188 C 10.15625 14.464844 9.96875 14.726562 9.789062 14.929688 C 9.75 14.824219 9.710938 14.71875 9.683594 14.613281 C 9.5625 14.597656 9.449219 14.570312 9.328125 14.5625 C 9.15625 14.597656 9.089844 14.832031 8.902344 14.839844 C 8.59375 14.8125 8.300781 14.691406 7.984375 14.675781 C 7.609375 14.726562 7.257812 14.882812 6.886719 14.980469 C 6.769531 14.886719 6.640625 14.796875 6.519531 14.703125 C 6.683594 14.59375 7.054688 14.507812 6.804688 14.273438 C 7.144531 14.132812 7.421875 14.332031 7.65625 14.542969 C 7.648438 14.453125 7.632812 14.351562 7.625 14.261719 C 7.84375 14.210938 8.074219 14.203125 8.269531 14.085938 C 8.398438 13.910156 8.441406 13.691406 8.511719 13.492188 C 8.714844 13.597656 8.902344 13.710938 9.105469 13.796875 Z M 9.105469 13.796875 "/>
<path style=" stroke:none;fill-rule:nonzero;fill:rgb(66.27451%,95.294118%,49.411765%);fill-opacity:1;" d="M 12.125 14.304688 C 12.25 14.183594 12.378906 14.058594 12.515625 13.9375 C 12.640625 14.296875 12.808594 14.664062 13.128906 14.902344 C 13.671875 15.289062 14.234375 15.710938 14.910156 15.859375 C 15.511719 15.964844 16.171875 15.902344 16.691406 15.578125 C 17.140625 15.199219 17.351562 14.640625 17.816406 14.273438 C 18.253906 14.480469 18.742188 14.570312 19.164062 14.804688 C 19.597656 15.0625 19.808594 15.53125 20.070312 15.929688 C 19.785156 15.980469 19.507812 16.035156 19.222656 16.09375 C 19.328125 16.261719 19.441406 16.4375 19.554688 16.605469 C 19.476562 16.714844 19.402344 16.820312 19.335938 16.929688 C 19.191406 16.71875 19.058594 16.507812 18.921875 16.296875 C 18.613281 16.367188 18.320312 16.480469 18.058594 16.636719 L 18.148438 17.039062 C 17.488281 16.71875 16.78125 17.039062 16.1875 17.347656 C 16.007812 17.4375 15.820312 17.542969 15.640625 17.636719 C 15.265625 17.445312 14.894531 17.25 14.496094 17.101562 C 14.339844 17.339844 14.152344 17.574219 13.964844 17.796875 C 13.898438 17.613281 13.820312 17.433594 13.761719 17.242188 C 13.695312 17.25 13.558594 17.269531 13.492188 17.277344 C 13.460938 17.539062 13.46875 17.796875 13.507812 18.058594 C 13.324219 18.039062 13.136719 18.015625 12.957031 17.996094 C 13.039062 17.644531 13.136719 17.296875 13.214844 16.9375 C 13.121094 16.945312 12.933594 16.960938 12.84375 16.964844 C 12.535156 17.410156 12.523438 17.945312 12.582031 18.460938 C 12.453125 18.363281 12.335938 18.261719 12.214844 18.171875 C 12.230469 17.804688 12.28125 17.445312 12.3125 17.078125 C 11.90625 16.917969 11.742188 17.355469 11.664062 17.636719 C 11.441406 17.566406 11.214844 17.503906 10.996094 17.425781 C 10.492188 17.277344 10.164062 16.859375 9.675781 16.679688 C 9.417969 16.578125 9.230469 16.382812 9.035156 16.207031 C 9.015625 16.277344 8.96875 16.417969 8.953125 16.488281 C 9.148438 16.796875 9.148438 17.199219 8.765625 17.390625 C 8.644531 17.375 8.40625 17.347656 8.277344 17.324219 C 8.683594 17.714844 9.277344 17.785156 9.808594 17.917969 L 9.511719 18.113281 C 9 17.960938 8.441406 17.945312 7.960938 17.699219 C 7.949219 17.515625 7.925781 17.324219 7.910156 17.144531 C 7.765625 17.113281 7.632812 17.09375 7.488281 17.066406 C 7.324219 17.039062 7.167969 17.007812 7 16.972656 C 6.878906 16.839844 6.746094 16.605469 6.527344 16.726562 C 6.355469 16.875 6.210938 17.050781 6.046875 17.214844 C 5.949219 17.085938 5.84375 16.960938 5.746094 16.832031 C 5.011719 16.917969 5.070312 17.75 4.597656 18.121094 C 4.296875 18.328125 4.3125 18.714844 4.035156 18.941406 C 3.996094 18.621094 3.972656 18.3125 4.011719 17.996094 C 4.160156 17.4375 4.425781 16.917969 4.574219 16.355469 C 4.589844 16.3125 4.613281 16.21875 4.628906 16.171875 C 4.933594 16.183594 5.257812 16.226562 5.558594 16.148438 C 5.820312 16.03125 5.714844 15.691406 5.8125 15.472656 C 5.859375 15.09375 6.210938 14.875 6.535156 14.703125 C 6.65625 14.796875 6.78125 14.886719 6.902344 14.980469 C 7.269531 14.875 7.625 14.726562 8 14.675781 C 8.316406 14.691406 8.609375 14.8125 8.917969 14.839844 C 9.105469 14.832031 9.164062 14.597656 9.34375 14.5625 C 9.464844 14.570312 9.578125 14.597656 9.699219 14.613281 C 9.734375 14.71875 9.773438 14.824219 9.804688 14.929688 C 9.992188 14.726562 10.171875 14.464844 10.492188 14.492188 C 10.382812 14.699219 10.277344 14.894531 10.164062 15.097656 C 10.425781 15.171875 10.683594 15.105469 10.914062 14.988281 C 10.878906 14.839844 10.847656 14.699219 10.816406 14.550781 C 11.207031 14.613281 11.28125 14.992188 11.410156 15.289062 L 11.882812 15.164062 C 12.140625 15.367188 12.386719 15.585938 12.632812 15.796875 C 13.039062 16.148438 13.625 16.15625 14.144531 16.183594 C 13.898438 15.78125 13.519531 15.253906 12.941406 15.402344 C 12.664062 15.042969 12.402344 14.664062 12.125 14.304688 Z M 12.125 14.304688 "/>
<path style=" stroke:none;fill-rule:nonzero;fill:rgb(52.941176%,87.058824%,44.313725%);fill-opacity:1;" d="M 19.230469 16.09375 C 19.515625 16.035156 19.792969 15.988281 20.078125 15.929688 C 20.167969 16.113281 20.242188 16.296875 20.320312 16.480469 C 19.539062 17.214844 18.390625 17.402344 17.359375 17.628906 C 16.929688 17.75 16.535156 17.539062 16.179688 17.347656 C 16.773438 17.042969 17.480469 16.71875 18.140625 17.039062 L 18.050781 16.636719 C 18.320312 16.480469 18.613281 16.367188 18.914062 16.296875 C 19.050781 16.507812 19.191406 16.71875 19.328125 16.929688 C 19.394531 16.824219 19.46875 16.714844 19.546875 16.605469 C 19.449219 16.4375 19.335938 16.261719 19.230469 16.09375 Z M 19.230469 16.09375 "/>
<path style=" stroke:none;fill-rule:nonzero;fill:rgb(98.431373%,99.215686%,98.823529%);fill-opacity:1;" d="M 13.550781 14.445312 L 13.535156 14.527344 C 14.183594 15.132812 15.144531 15.507812 16.046875 15.261719 C 16.390625 15.085938 16.734375 14.867188 16.902344 14.523438 C 17.464844 13.429688 17.5625 12.140625 17.179688 10.984375 C 16.832031 10.753906 16.503906 10.484375 16.300781 10.132812 C 15.886719 9.597656 15.203125 9.03125 14.453125 9.285156 C 13.6875 9.386719 13.144531 10.019531 12.933594 10.683594 C 12.648438 11.527344 12.550781 12.484375 12.941406 13.316406 C 13.019531 13.734375 13.101562 14.246094 13.550781 14.445312 Z M 14.992188 12.367188 C 15.160156 12.824219 14.886719 13.457031 14.289062 13.464844 C 14.015625 13.289062 13.640625 13.125 13.703125 12.761719 C 13.597656 12.082031 14.574219 12.105469 14.992188 12.367188 Z M 20.046875 15.027344 C 20.394531 14.683594 20.816406 14.417969 21.183594 14.097656 C 21.8125 13.230469 22.347656 12.082031 21.867188 11.039062 C 21.703125 10.351562 20.84375 10.109375 20.175781 10.1875 C 19.296875 10.328125 18.328125 10.625 17.863281 11.40625 C 17.878906 12.167969 18.003906 12.929688 17.839844 13.683594 C 18.695312 13.894531 19.628906 14.246094 20.046875 15.027344 Z M 20.679688 11.824219 C 20.851562 11.789062 21.03125 11.746094 21.207031 11.695312 C 21.402344 11.976562 21.394531 12.378906 21.289062 12.691406 C 20.941406 13.007812 20.445312 12.683594 20.304688 12.335938 C 20.433594 12.160156 20.558594 11.992188 20.679688 11.824219 Z M 20.679688 11.824219 "/>
<path style=" stroke:none;fill-rule:nonzero;fill:rgb(13.72549%,12.156863%,12.54902%);fill-opacity:1;" d="M 17.105469 19.128906 C 17.105469 19.136719 17.105469 19.136719 17.105469 19.128906 C 17.113281 19.136719 17.113281 19.136719 17.105469 19.128906 Z M 17.105469 19.128906 "/>
<path style=" stroke:none;fill-rule:nonzero;fill:rgb(100%,100%,100%);fill-opacity:1;" d="M 2.230469 19.59375 C 2.148438 19.769531 2.050781 19.953125 1.953125 20.125 C 2.035156 20.347656 2.164062 20.558594 2.3125 20.75 C 2.359375 20.730469 2.449219 20.695312 2.488281 20.679688 C 2.164062 20.328125 2.417969 19.90625 2.628906 19.566406 C 2.492188 19.585938 2.359375 19.59375 2.230469 19.59375 Z M 3.171875 19.730469 L 3.140625 19.652344 C 3.125 19.679688 3.101562 19.734375 3.09375 19.765625 L 3.011719 19.855469 C 2.996094 19.871094 2.96875 19.90625 2.960938 19.917969 C 2.765625 20.074219 2.800781 20.3125 2.78125 20.523438 C 2.808594 20.574219 2.878906 20.679688 2.90625 20.734375 C 3.246094 20.925781 3.175781 20.230469 2.945312 20.214844 C 3.085938 20.054688 3.246094 19.898438 3.289062 19.6875 Z M 3.171875 19.730469 "/>
<path style=" stroke:none;fill-rule:nonzero;fill:rgb(13.72549%,12.156863%,12.54902%);fill-opacity:1;" d="M 14.289062 13.464844 C 14.886719 13.464844 15.152344 12.824219 14.992188 12.367188 C 14.574219 12.105469 13.605469 12.082031 13.703125 12.753906 C 13.640625 13.121094 14.015625 13.289062 14.289062 13.464844 Z M 21.289062 12.683594 C 21.394531 12.371094 21.402344 11.972656 21.207031 11.6875 C 21.03125 11.738281 20.859375 11.78125 20.679688 11.816406 C 20.550781 11.984375 20.433594 12.152344 20.304688 12.324219 C 20.445312 12.675781 20.933594 13 21.289062 12.683594 Z M 21.289062 12.683594 "/>
<path style=" stroke:none;fill-rule:nonzero;fill:rgb(13.72549%,12.156863%,12.54902%);fill-opacity:1;" d="M 20.957031 19.496094 C 20.183594 19.371094 19.402344 19.488281 18.628906 19.476562 C 18.285156 19.257812 17.945312 19.003906 17.515625 18.976562 C 17.382812 19.03125 17.246094 19.082031 17.113281 19.128906 C 17.464844 19.164062 17.832031 19.242188 18.101562 19.480469 C 17.765625 19.460938 17.417969 19.476562 17.105469 19.363281 C 16.675781 19.511719 16.269531 19.734375 16.210938 20.199219 C 16.03125 19.960938 16.292969 19.742188 16.398438 19.523438 C 16.15625 19.050781 15.578125 18.804688 15.40625 18.296875 C 15.535156 18.128906 15.753906 18.144531 15.886719 18.292969 C 16.144531 18.601562 16.285156 18.96875 16.457031 19.320312 C 16.675781 19.335938 16.894531 19.347656 17.105469 19.363281 L 17.105469 19.128906 C 17 19.171875 16.886719 19.214844 16.78125 19.265625 C 16.59375 18.875 16.4375 18.480469 16.300781 18.078125 C 16.554688 18.136719 16.804688 18.222656 17.058594 18.269531 C 18.230469 18.101562 19.484375 17.882812 20.402344 17.121094 C 20.597656 16.9375 20.941406 16.777344 20.882812 16.472656 C 20.859375 16.320312 20.808594 16.171875 20.730469 16.035156 C 20.605469 15.78125 20.425781 15.550781 20.3125 15.28125 C 20.574219 15.191406 20.84375 15.097656 21.101562 14.988281 C 22.015625 14.148438 22.476562 12.949219 22.574219 11.765625 C 22.484375 11.140625 22.292969 10.449219 21.777344 10.003906 C 20.828125 9.5625 19.71875 9.703125 18.757812 10.027344 C 18.320312 10.1875 18.003906 10.519531 17.636719 10.789062 C 17.34375 10.722656 17.164062 10.40625 16.96875 10.195312 C 16.59375 9.597656 16.082031 9.046875 15.382812 8.785156 C 14.796875 8.765625 14.128906 8.617188 13.625 8.96875 C 13.371094 9.125 13.085938 9.265625 12.90625 9.511719 C 12.5 10.222656 12.265625 11.011719 12.199219 11.808594 C 12.070312 11.757812 11.945312 11.71875 11.816406 11.667969 C 10.921875 11.359375 9.992188 11.148438 9.035156 11.175781 C 8.375 11.292969 7.730469 11.476562 7.113281 11.738281 C 5.859375 12.351562 5.0625 13.550781 4.597656 14.769531 C 4.3125 15.304688 4.109375 15.867188 3.996094 16.453125 C 3.890625 16.980469 3.671875 17.496094 3.644531 18.039062 C 3.644531 18.402344 3.671875 18.769531 3.664062 19.136719 C 3.652344 19.144531 3.628906 19.15625 3.613281 19.164062 C 3.207031 19.375 2.726562 19.371094 2.277344 19.441406 C 1.9375 19.433594 1.613281 19.277344 1.277344 19.371094 L 1.269531 19.371094 C 0.910156 19.53125 0.527344 19.621094 0.164062 19.777344 C 0.0820312 20.257812 0 20.917969 0.617188 21.101562 L 1.277344 21.101562 C 2.058594 21.101562 2.832031 21.109375 3.613281 21.117188 L 3.792969 21.117188 C 3.980469 22.03125 4.167969 22.976562 4.6875 23.789062 C 5.296875 24.710938 5.898438 25.675781 6.820312 26.351562 C 7.707031 26.910156 8.828125 26.929688 9.839844 26.761719 C 10.222656 26.71875 10.492188 26.4375 10.839844 26.300781 C 11.050781 26.183594 11.367188 26.15625 11.441406 25.902344 C 12.132812 24.84375 11.605469 23.539062 10.976562 22.574219 C 10.578125 21.914062 9.707031 21.777344 8.96875 21.808594 C 8.535156 21.871094 8.261719 22.214844 7.910156 22.425781 C 7.527344 22.644531 7.152344 23.109375 7.445312 23.535156 C 7.691406 23.976562 8 24.570312 8.632812 24.535156 C 9.027344 24.492188 9.554688 24.40625 9.726562 24.019531 C 9.804688 23.546875 9.210938 23.320312 8.8125 23.238281 C 8.832031 23.46875 8.855469 23.695312 8.878906 23.929688 C 8.675781 23.792969 8.464844 23.667969 8.253906 23.535156 C 8.382812 22.914062 9.121094 22.925781 9.628906 22.738281 C 10.148438 23.492188 10.6875 24.464844 10.269531 25.367188 C 9.78125 25.9375 8.902344 25.867188 8.226562 25.71875 C 7.339844 25.589844 6.746094 24.84375 6.355469 24.148438 C 5.761719 23.179688 5.039062 22.144531 5.167969 20.984375 C 5.582031 20.976562 6 20.949219 6.40625 20.988281 C 6.804688 21.074219 7.160156 21.398438 7.585938 21.242188 C 8.503906 21.011719 9.457031 21.152344 10.394531 21.136719 C 11.132812 21.101562 11.875 21.066406 12.613281 21.109375 C 12.875 21.179688 13.023438 21.484375 13.332031 21.460938 C 13.6875 21.574219 13.890625 21.230469 14.152344 21.089844 C 14.746094 21.066406 15.347656 21.054688 15.933594 21.089844 C 16.210938 21.546875 16.632812 22.039062 17.230469 22.109375 C 17.960938 22.136719 18.585938 21.652344 18.976562 21.117188 C 19.492188 21.230469 20.046875 21.378906 20.550781 21.136719 C 21.640625 20.707031 22.84375 20.707031 23.960938 20.40625 L 23.960938 20.101562 C 23.082031 19.582031 21.972656 19.734375 20.957031 19.496094 Z M 15.933594 19.515625 C 15.265625 19.53125 14.46875 19.609375 14.0625 18.988281 C 13.792969 19.058594 13.519531 19.15625 13.378906 19.40625 C 13.28125 19.355469 13.078125 19.25 12.980469 19.199219 C 12.980469 18.96875 12.980469 18.734375 13.003906 18.503906 L 13.453125 18.503906 C 13.867188 18.523438 14.273438 18.460938 14.679688 18.410156 C 14.886719 18.433594 14.941406 18.671875 15.074219 18.792969 C 15.316406 19.074219 15.65625 19.269531 15.933594 19.515625 Z M 15.460938 20.160156 C 14.941406 20.171875 14.429688 20.171875 13.917969 20.144531 C 13.867188 19.855469 14.257812 19.910156 14.445312 19.871094 C 14.878906 19.839844 15.308594 19.863281 15.746094 19.863281 C 15.757812 20.066406 15.667969 20.164062 15.460938 20.160156 Z M 17.863281 11.414062 C 18.328125 10.632812 19.296875 10.335938 20.175781 10.195312 C 20.84375 10.117188 21.695312 10.359375 21.867188 11.046875 C 22.347656 12.082031 21.8125 13.230469 21.183594 14.105469 C 20.816406 14.429688 20.394531 14.691406 20.046875 15.035156 C 19.628906 14.246094 18.695312 13.894531 17.839844 13.699219 C 18 12.9375 17.878906 12.167969 17.863281 11.414062 Z M 12.933594 10.683594 C 13.144531 10.019531 13.6875 9.386719 14.453125 9.285156 C 15.203125 9.03125 15.894531 9.597656 16.300781 10.132812 C 16.511719 10.492188 16.832031 10.753906 17.179688 10.984375 C 17.5625 12.140625 17.464844 13.429688 16.902344 14.523438 C 16.734375 14.875 16.382812 15.085938 16.046875 15.261719 C 15.136719 15.507812 14.183594 15.132812 13.535156 14.527344 L 13.550781 14.445312 C 13.09375 14.246094 13.019531 13.726562 12.933594 13.316406 C 12.550781 12.484375 12.648438 11.527344 12.933594 10.683594 Z M 1.277344 20.878906 C 1.007812 20.871094 0.742188 20.855469 0.472656 20.8125 C 0.429688 20.574219 0.316406 20.222656 0.578125 20.058594 C 0.847656 19.917969 1.035156 19.695312 1.195312 19.445312 C 1.222656 19.453125 1.246094 19.453125 1.277344 19.453125 C 1.503906 19.480469 1.734375 19.476562 1.960938 19.433594 C 1.9375 19.707031 1.539062 19.828125 1.59375 20.109375 C 1.660156 20.382812 1.824219 20.628906 1.945312 20.890625 C 1.71875 20.882812 1.503906 20.878906 1.277344 20.878906 Z M 2.488281 20.6875 C 2.441406 20.707031 2.351562 20.742188 2.3125 20.757812 C 2.164062 20.558594 2.042969 20.355469 1.953125 20.128906 C 2.058594 19.960938 2.148438 19.777344 2.230469 19.601562 C 2.359375 19.59375 2.492188 19.585938 2.621094 19.574219 C 2.417969 19.910156 2.164062 20.328125 2.488281 20.6875 Z M 2.890625 20.730469 C 2.863281 20.679688 2.792969 20.574219 2.765625 20.519531 C 2.785156 20.304688 2.75 20.066406 2.945312 19.910156 C 2.960938 19.898438 2.980469 19.871094 2.996094 19.847656 L 3.078125 19.757812 C 3.09375 19.730469 3.117188 19.671875 3.125 19.644531 L 3.15625 19.722656 L 3.261719 19.679688 C 3.222656 19.890625 3.058594 20.046875 2.914062 20.207031 C 3.171875 20.222656 3.230469 20.917969 2.890625 20.730469 Z M 3.441406 20.136719 C 3.476562 20.03125 3.539062 19.953125 3.613281 19.898438 C 3.875 19.707031 4.328125 19.757812 4.640625 19.734375 C 5.019531 19.785156 5.484375 19.644531 5.769531 19.945312 L 5.648438 20.199219 C 4.972656 20.171875 4.289062 20.160156 3.613281 20.144531 C 3.554688 20.144531 3.5 20.144531 3.441406 20.136719 Z M 6.574219 19.117188 C 6.183594 19.304688 5.746094 19.3125 5.324219 19.3125 C 5.234375 18.707031 5.640625 18.191406 5.941406 17.691406 C 6.078125 17.664062 6.210938 17.636719 6.347656 17.601562 C 6.160156 18.121094 6.265625 18.65625 6.574219 19.117188 Z M 5.492188 23.484375 C 5.777344 23.921875 6.007812 24.378906 6.28125 24.824219 C 6.566406 25.28125 7.039062 25.589844 7.480469 25.90625 C 8.429688 26.5625 9.992188 26.464844 10.660156 25.5 C 11.085938 24.640625 10.554688 23.730469 10.1875 22.941406 C 9.554688 22.011719 7.910156 22.714844 7.953125 23.730469 C 8.316406 23.933594 8.722656 24.351562 9.171875 24.089844 C 9.164062 23.929688 9.15625 23.757812 9.15625 23.589844 C 9.261719 23.703125 9.34375 23.828125 9.449219 23.949219 C 9.195312 24.257812 8.78125 24.246094 8.414062 24.195312 C 8.261719 24.039062 8.105469 23.886719 7.953125 23.730469 C 7.765625 22.722656 9.140625 21.871094 10.058594 22.386719 C 10.710938 22.78125 10.890625 23.527344 11.148438 24.167969 C 11.449219 24.9375 11.003906 25.84375 10.230469 26.183594 C 9.628906 26.542969 8.894531 26.402344 8.226562 26.402344 C 7.308594 26.359375 6.714844 25.660156 6.121094 25.105469 C 5.542969 24.441406 5.167969 23.652344 4.71875 22.90625 C 4.484375 22.300781 4.347656 21.652344 4.296875 21.011719 C 4.378906 21.023438 4.535156 21.046875 4.628906 21.054688 C 4.980469 21.84375 5.003906 22.746094 5.492188 23.484375 Z M 3.71875 20.707031 C 3.6875 20.660156 3.644531 20.558594 3.613281 20.511719 C 4.410156 20.390625 5.207031 20.566406 6 20.59375 C 6.03125 20.628906 6.09375 20.695312 6.128906 20.730469 C 5.324219 20.730469 4.515625 20.785156 3.71875 20.707031 Z M 6.191406 19.976562 C 6.4375 19.6875 6.746094 19.453125 7.070312 19.226562 C 6.601562 18.574219 6.390625 17.601562 7 16.964844 C 6.878906 16.832031 6.746094 16.601562 6.527344 16.71875 C 6.355469 16.867188 6.210938 17.042969 6.046875 17.207031 C 5.347656 17.707031 5.078125 18.503906 4.65625 19.1875 C 4.453125 19.179688 4.25 19.171875 4.046875 19.171875 C 4.046875 19.117188 4.042969 18.996094 4.035156 18.933594 C 3.996094 18.617188 3.972656 18.304688 4.011719 17.988281 C 4.160156 17.433594 4.425781 16.910156 4.574219 16.347656 C 4.589844 16.304688 4.613281 16.210938 4.628906 16.164062 C 4.648438 16.09375 4.6875 15.960938 4.710938 15.886719 C 5.160156 14.738281 5.714844 13.5625 6.707031 12.730469 C 7.347656 12.140625 8.261719 11.976562 9.097656 11.730469 C 10.035156 11.683594 10.976562 11.949219 11.824219 12.316406 L 11.867188 12.335938 C 12.242188 12.476562 12.222656 12.894531 12.304688 13.210938 C 12.371094 13.449219 12.4375 13.699219 12.523438 13.9375 C 12.648438 14.296875 12.816406 14.664062 13.136719 14.902344 C 13.679688 15.289062 14.242188 15.710938 14.917969 15.859375 C 15.519531 15.964844 16.179688 15.902344 16.699219 15.578125 C 17.148438 15.199219 17.359375 14.640625 17.824219 14.273438 C 18.261719 14.480469 18.75 14.570312 19.171875 14.804688 C 19.605469 15.0625 19.816406 15.53125 20.078125 15.929688 L 20.125 16.035156 C 20.191406 16.183594 20.25 16.332031 20.320312 16.480469 C 19.539062 17.214844 18.390625 17.402344 17.359375 17.628906 C 16.929688 17.75 16.535156 17.539062 16.179688 17.347656 C 16 17.4375 15.8125 17.542969 15.632812 17.636719 C 14.984375 17.960938 14.234375 18.136719 13.5 18.058594 C 13.316406 18.039062 13.128906 18.015625 12.949219 17.996094 C 13.03125 17.644531 13.128906 17.296875 13.207031 16.9375 C 13.117188 16.945312 12.925781 16.960938 12.835938 16.964844 C 12.53125 17.410156 12.515625 17.945312 12.574219 18.460938 C 12.589844 18.652344 12.605469 18.847656 12.613281 19.039062 C 12.394531 18.785156 12.214844 18.503906 12.207031 18.171875 C 12.222656 17.804688 12.273438 17.445312 12.304688 17.078125 C 11.898438 16.917969 11.734375 17.355469 11.660156 17.636719 C 11.660156 17.792969 11.671875 17.945312 11.679688 18.101562 C 10.96875 18.257812 10.207031 18.332031 9.503906 18.113281 C 8.992188 17.960938 8.4375 17.945312 7.953125 17.699219 C 7.941406 17.515625 7.917969 17.324219 7.902344 17.144531 C 7.757812 17.113281 7.625 17.09375 7.480469 17.066406 C 7.292969 17.539062 7.03125 18.015625 7.0625 18.539062 C 7.160156 18.875 7.460938 19.128906 7.683594 19.40625 C 7.355469 19.496094 6.894531 19.425781 6.671875 19.714844 C 6.535156 20.277344 7.082031 20.601562 7.4375 20.949219 C 6.933594 20.757812 6.363281 20.503906 6.191406 19.976562 Z M 12.492188 19.582031 C 11.5625 19.59375 10.621094 19.621094 9.691406 19.546875 C 9.75 19.257812 9.855469 18.976562 9.9375 18.6875 C 10.589844 18.664062 11.246094 18.6875 11.898438 18.65625 C 12.214844 18.882812 12.347656 19.25 12.492188 19.582031 Z M 9.335938 19.496094 C 9.089844 19.476562 8.847656 19.460938 8.609375 19.417969 C 8.929688 19.214844 9.171875 18.96875 9.277344 18.609375 L 9.40625 18.546875 C 9.425781 18.863281 9.585938 19.226562 9.335938 19.496094 Z M 8.601562 18.4375 C 8.554688 18.601562 8.519531 18.761719 8.488281 18.933594 C 8.253906 19.050781 8.046875 19.214844 7.84375 19.363281 C 7.570312 18.988281 7.464844 18.550781 7.558594 18.109375 C 7.902344 18.207031 8.324219 18.191406 8.601562 18.4375 Z M 7.203125 20.171875 C 7.160156 20.023438 7.113281 19.871094 7.0625 19.722656 C 7.40625 19.800781 7.953125 19.609375 8.164062 19.875 C 8.472656 19.925781 8.765625 20.058594 9.082031 20.066406 C 10.199219 19.757812 11.386719 19.925781 12.535156 19.925781 C 12.542969 20.019531 12.558594 20.207031 12.566406 20.300781 C 11.703125 20.328125 10.839844 20.335938 9.976562 20.3125 C 9.523438 20.3125 9.097656 20.03125 8.644531 20.160156 C 8.449219 20.171875 8.226562 20.371094 8.050781 20.199219 C 7.757812 20.1875 7.480469 20.179688 7.203125 20.171875 Z M 12.53125 20.855469 C 11.230469 20.898438 9.9375 20.878906 8.636719 20.871094 C 8.367188 20.863281 8.089844 20.847656 7.820312 20.84375 C 7.753906 20.757812 7.683594 20.664062 7.617188 20.582031 C 7.953125 20.582031 8.292969 20.589844 8.636719 20.582031 C 9.96875 20.59375 11.296875 20.617188 12.628906 20.699219 C 12.597656 20.742188 12.550781 20.820312 12.53125 20.855469 Z M 12.726562 19.152344 C 12.875 19.328125 13.039062 19.480469 13.21875 19.628906 C 13.460938 19.371094 13.996094 18.953125 14.210938 19.445312 C 13.851562 19.609375 13.402344 19.730469 13.28125 20.136719 L 13.273438 20.1875 C 13.324219 20.546875 13.46875 20.890625 13.582031 21.238281 C 12.808594 20.773438 13.191406 19.800781 12.726562 19.152344 Z M 17.089844 21.6875 C 16.730469 21.527344 16.503906 21.203125 16.226562 20.949219 C 16.652344 21.125 17.074219 21.3125 17.523438 21.453125 C 17.78125 21.355469 18.140625 20.828125 18.351562 21.214844 C 18.011719 21.496094 17.554688 21.785156 17.089844 21.6875 Z M 19.28125 20.820312 C 18.9375 20.863281 18.613281 20.660156 18.261719 20.6875 C 17.570312 20.730469 16.871094 20.785156 16.1875 20.644531 C 15.40625 20.800781 14.601562 20.730469 13.8125 20.773438 C 13.804688 20.699219 13.800781 20.558594 13.792969 20.488281 C 14.59375 20.425781 15.398438 20.453125 16.1875 20.601562 C 16.925781 20.511719 17.675781 20.59375 18.410156 20.476562 C 18.710938 20.496094 19.351562 20.371094 19.28125 20.820312 Z M 17.960938 20.222656 C 17.511719 20.164062 17.035156 20.242188 16.59375 20.117188 C 16.625 20.066406 16.683594 19.960938 16.714844 19.90625 C 17.515625 19.839844 18.320312 19.734375 19.140625 19.777344 C 19.367188 19.820312 19.539062 19.988281 19.726562 20.101562 C 19.175781 20.355469 18.546875 20.292969 17.960938 20.222656 Z M 21.875 20.539062 C 21.265625 20.644531 20.695312 20.898438 20.070312 20.914062 C 20.085938 20.757812 20.09375 20.59375 20.09375 20.441406 C 20.160156 20.398438 20.304688 20.304688 20.378906 20.265625 C 20.394531 20.09375 20.417969 19.925781 20.433594 19.757812 C 20.933594 19.734375 21.410156 19.910156 21.902344 19.960938 C 21.910156 20.144531 21.972656 20.355469 21.875 20.539062 Z M 21.875 20.539062 "/>
<path style=" stroke:none;fill-rule:nonzero;fill:rgb(59.215686%,92.156863%,45.490196%);fill-opacity:1;" d="M 9.035156 16.199219 C 9.230469 16.375 9.417969 16.570312 9.675781 16.671875 C 10.15625 16.847656 10.492188 17.269531 10.996094 17.417969 C 10.953125 17.488281 10.90625 17.566406 10.863281 17.636719 C 10.179688 17.433594 9.449219 17.585938 8.765625 17.382812 C 9.148438 17.191406 9.148438 16.789062 8.953125 16.480469 C 8.96875 16.410156 9.015625 16.269531 9.035156 16.199219 Z M 9.035156 16.199219 "/>
<path style=" stroke:none;fill-rule:nonzero;fill:rgb(51.764706%,79.607843%,44.313725%);fill-opacity:1;" d="M 4.589844 18.113281 C 5.0625 17.742188 5.003906 16.910156 5.738281 16.824219 C 5.84375 16.953125 5.941406 17.078125 6.039062 17.207031 C 5.339844 17.707031 5.070312 18.503906 4.648438 19.1875 C 4.445312 19.179688 4.242188 19.171875 4.042969 19.171875 C 4.042969 19.117188 4.035156 18.996094 4.027344 18.933594 C 4.304688 18.707031 4.289062 18.320312 4.589844 18.113281 Z M 4.589844 18.113281 "/>
<path style=" stroke:none;fill-rule:nonzero;fill:rgb(42.352941%,72.54902%,37.647059%);fill-opacity:1;" d="M 14.488281 17.101562 C 14.886719 17.25 15.257812 17.445312 15.632812 17.636719 C 14.984375 17.960938 14.234375 18.136719 13.5 18.058594 C 13.460938 17.796875 13.453125 17.539062 13.484375 17.277344 C 13.550781 17.269531 13.6875 17.253906 13.753906 17.242188 C 13.820312 17.425781 13.890625 17.609375 13.957031 17.796875 C 14.144531 17.574219 14.324219 17.339844 14.488281 17.101562 Z M 14.488281 17.101562 "/>
<path style=" stroke:none;fill-rule:nonzero;fill:rgb(46.666667%,77.647059%,42.352941%);fill-opacity:1;" d="M 8.277344 17.320312 C 8.398438 17.332031 8.636719 17.359375 8.765625 17.382812 C 9.449219 17.585938 10.179688 17.433594 10.863281 17.636719 C 10.90625 17.566406 10.953125 17.488281 10.996094 17.417969 C 11.222656 17.496094 11.441406 17.558594 11.664062 17.628906 C 11.664062 17.785156 11.679688 17.9375 11.6875 18.09375 C 10.976562 18.25 10.214844 18.328125 9.511719 18.109375 L 9.808594 17.910156 C 9.277344 17.777344 8.683594 17.707031 8.277344 17.320312 Z M 8.277344 17.320312 "/>
<path style=" stroke:none;fill-rule:nonzero;fill:rgb(81.568627%,48.235294%,51.764706%);fill-opacity:1;" d="M 1.203125 19.445312 C 1.457031 19.480469 1.710938 19.480469 1.96875 19.433594 C 1.945312 19.707031 1.546875 19.828125 1.601562 20.109375 C 1.667969 20.382812 1.832031 20.628906 1.953125 20.890625 C 1.464844 20.871094 0.96875 20.898438 0.488281 20.8125 C 0.441406 20.574219 0.332031 20.222656 0.59375 20.058594 C 0.855469 19.910156 1.042969 19.695312 1.203125 19.445312 Z M 1.203125 19.445312 "/>
<path style=" stroke:none;fill-rule:nonzero;fill:rgb(99.607843%,99.607843%,99.607843%);fill-opacity:1;" d="M 20.433594 19.757812 C 20.933594 19.734375 21.410156 19.910156 21.902344 19.960938 C 21.902344 20.152344 21.964844 20.363281 21.867188 20.546875 C 21.257812 20.652344 20.6875 20.90625 20.0625 20.917969 C 20.078125 20.765625 20.085938 20.601562 20.085938 20.449219 C 20.152344 20.40625 20.296875 20.3125 20.371094 20.269531 C 20.394531 20.09375 20.417969 19.925781 20.433594 19.757812 Z M 20.433594 19.757812 "/>
<path style=" stroke:none;fill-rule:nonzero;fill:rgb(88.235294%,79.607843%,52.54902%);fill-opacity:1;" d="M 7.0625 19.722656 C 7.40625 19.800781 7.953125 19.609375 8.164062 19.875 L 7.925781 19.847656 C 7.960938 19.960938 8 20.082031 8.046875 20.195312 C 7.765625 20.195312 7.480469 20.179688 7.203125 20.179688 C 7.160156 20.023438 7.105469 19.871094 7.0625 19.722656 M 3.613281 20.511719 C 4.410156 20.390625 5.207031 20.566406 6 20.59375 C 6.03125 20.628906 6.09375 20.695312 6.128906 20.730469 C 5.324219 20.730469 4.515625 20.785156 3.71875 20.707031 C 3.6875 20.660156 3.636719 20.558594 3.613281 20.511719 Z M 3.613281 20.511719 "/>
<path style=" stroke:none;fill-rule:nonzero;fill:rgb(86.666667%,76.470588%,46.666667%);fill-opacity:1;" d="M 3.441406 20.136719 C 3.589844 19.671875 4.238281 19.757812 4.648438 19.734375 C 5.023438 19.785156 5.492188 19.644531 5.777344 19.945312 L 5.65625 20.199219 C 4.914062 20.164062 4.175781 20.160156 3.441406 20.136719 M 8.636719 20.589844 C 9.96875 20.601562 11.296875 20.625 12.628906 20.707031 C 12.605469 20.75 12.550781 20.828125 12.53125 20.863281 C 11.230469 20.90625 9.9375 20.882812 8.636719 20.878906 Z M 8.636719 20.589844 "/>
<path style=" stroke:none;fill-rule:nonzero;fill:rgb(86.27451%,77.254902%,46.27451%);fill-opacity:1;" d="M 7.925781 19.847656 L 8.164062 19.875 C 8.472656 19.925781 8.765625 20.058594 9.082031 20.066406 C 10.199219 19.757812 11.386719 19.925781 12.535156 19.925781 C 12.542969 20.019531 12.558594 20.207031 12.566406 20.300781 C 11.703125 20.328125 10.839844 20.335938 9.976562 20.3125 C 9.523438 20.3125 9.097656 20.03125 8.644531 20.160156 C 8.449219 20.171875 8.226562 20.371094 8.050781 20.199219 C 8 20.074219 7.960938 19.960938 7.925781 19.847656 M 7.617188 20.582031 C 7.953125 20.582031 8.292969 20.589844 8.636719 20.582031 L 8.636719 20.871094 C 8.367188 20.863281 8.089844 20.847656 7.820312 20.84375 C 7.753906 20.757812 7.683594 20.671875 7.617188 20.582031 Z M 7.617188 20.582031 "/>
<path style=" stroke:none;fill-rule:nonzero;fill:rgb(96.078431%,84.313725%,46.27451%);fill-opacity:1;" d="M 13.917969 20.144531 C 13.867188 19.855469 14.257812 19.910156 14.445312 19.871094 C 14.878906 19.839844 15.308594 19.863281 15.746094 19.863281 C 15.765625 20.066406 15.675781 20.164062 15.464844 20.160156 C 14.949219 20.171875 14.429688 20.171875 13.917969 20.144531 M 16.714844 19.90625 C 17.515625 19.839844 18.320312 19.734375 19.140625 19.777344 C 19.367188 19.820312 19.539062 19.988281 19.726562 20.101562 C 19.175781 20.355469 18.554688 20.300781 17.960938 20.222656 C 17.511719 20.164062 17.035156 20.242188 16.59375 20.117188 C 16.625 20.058594 16.683594 19.953125 16.714844 19.90625 M 13.792969 20.496094 C 14.59375 20.433594 15.398438 20.460938 16.1875 20.609375 C 16.925781 20.519531 17.675781 20.601562 18.410156 20.484375 C 18.71875 20.503906 19.359375 20.378906 19.28125 20.828125 C 18.9375 20.871094 18.613281 20.664062 18.261719 20.695312 C 17.570312 20.734375 16.871094 20.792969 16.1875 20.652344 C 15.40625 20.808594 14.601562 20.734375 13.8125 20.777344 C 13.804688 20.707031 13.800781 20.566406 13.792969 20.496094 Z M 13.792969 20.496094 "/>
<path style=" stroke:none;fill-rule:nonzero;fill:rgb(58.431373%,61.568627%,39.215686%);fill-opacity:1;" d="M 13.273438 20.195312 C 13.273438 20.179688 13.28125 20.160156 13.28125 20.144531 Z M 13.273438 20.195312 "/>
</g>
</svg>
