<?xml version="1.0" encoding="UTF-8"?>
<svg xmlns="http://www.w3.org/2000/svg" xmlns:xlink="http://www.w3.org/1999/xlink" width="36px" height="40px" viewBox="0 0 36 39" version="1.1">
<defs>
<linearGradient id="linear0" gradientUnits="userSpaceOnUse" x1="26.648937" y1="20.603781" x2="135.66525" y2="114.39767" gradientTransform="matrix(0.1761,0,0,0.175801,-4.692872,-3.622162)">
<stop offset="0" style="stop-color:rgb(35.294118%,62.352941%,83.137255%);stop-opacity:1;"/>
<stop offset="1" style="stop-color:rgb(18.823529%,41.176471%,59.607843%);stop-opacity:1;"/>
</linearGradient>
<linearGradient id="linear1" gradientUnits="userSpaceOnUse" x1="150.96111" y1="192.35176" x2="112.03144" y2="137.27299" gradientTransform="matrix(0.1761,0,0,0.175801,-4.692872,-3.622162)">
<stop offset="0" style="stop-color:rgb(100%,83.137255%,23.137255%);stop-opacity:1;"/>
<stop offset="1" style="stop-color:rgb(100%,90.980392%,45.098039%);stop-opacity:1;"/>
</linearGradient>
<filter id="alpha" filterUnits="objectBoundingBox" x="0%" y="0%" width="100%" height="100%">
  <feColorMatrix type="matrix" in="SourceGraphic" values="0 0 0 0 1 0 0 0 0 1 0 0 0 0 1 0 0 0 1 0"/>
</filter>
<mask id="mask0">
  <g filter="url(#alpha)">
<rect x="0" y="0" width="36" height="39" style="fill:rgb(0%,0%,0%);fill-opacity:0.443137;stroke:none;"/>
  </g>
</mask>
<radialGradient id="radial0" gradientUnits="userSpaceOnUse" cx="61.518883" cy="132.28575" fx="61.518883" fy="132.28575" r="29.036913" gradientTransform="matrix(0.00000000547531,-0.0742693,0.330157,0.000000117357,-26.20199,44.095384)">
<stop offset="0" style="stop-color:rgb(72.156863%,72.156863%,72.156863%);stop-opacity:0.498039;"/>
<stop offset="1" style="stop-color:rgb(49.803922%,49.803922%,49.803922%);stop-opacity:0;"/>
</radialGradient>
<clipPath id="clip1">
  <rect x="0" y="0" width="36" height="39"/>
</clipPath>
<g id="surface5" clip-path="url(#clip1)">
<path style=" stroke:none;fill-rule:nonzero;fill:url(#radial0);" d="M 28.722656 39.527344 C 28.722656 38.335938 23.683594 37.371094 17.472656 37.371094 C 11.261719 37.371094 6.226562 38.335938 6.226562 39.527344 C 6.226562 40.71875 11.261719 41.683594 17.472656 41.683594 C 23.683594 41.683594 28.722656 40.71875 28.722656 39.527344 Z M 28.722656 39.527344 "/>
</g>
</defs>
<g id="surface1">
<path style=" stroke:none;fill-rule:nonzero;fill:url(#linear0);" d="M 17.191406 0 C 15.757812 0.0078125 14.386719 0.128906 13.179688 0.339844 C 9.628906 0.960938 8.984375 2.257812 8.984375 4.652344 L 8.984375 7.816406 L 17.378906 7.816406 L 17.378906 8.871094 L 5.835938 8.871094 C 3.394531 8.871094 1.257812 10.320312 0.589844 13.078125 C -0.179688 16.238281 -0.214844 18.210938 0.589844 21.511719 C 1.1875 23.96875 2.613281 25.71875 5.050781 25.71875 L 7.9375 25.71875 L 7.9375 21.929688 C 7.9375 19.1875 10.335938 16.773438 13.179688 16.773438 L 21.566406 16.773438 C 23.898438 16.773438 25.761719 14.871094 25.761719 12.554688 L 25.761719 4.652344 C 25.761719 2.402344 23.84375 0.714844 21.566406 0.339844 C 20.121094 0.101562 18.625 -0.0078125 17.191406 0 Z M 12.652344 2.542969 C 13.519531 2.542969 14.226562 3.253906 14.226562 4.128906 C 14.226562 5.003906 13.519531 5.707031 12.652344 5.707031 C 11.78125 5.707031 11.078125 5.003906 11.078125 4.128906 C 11.078125 3.253906 11.78125 2.542969 12.652344 2.542969 Z M 12.652344 2.542969 "/>
<path style=" stroke:none;fill-rule:nonzero;fill:url(#linear1);" d="M 26.808594 8.871094 L 26.808594 12.554688 C 26.808594 15.414062 24.359375 17.816406 21.566406 17.816406 L 13.179688 17.816406 C 10.882812 17.816406 8.984375 19.761719 8.984375 22.035156 L 8.984375 29.9375 C 8.984375 32.1875 10.960938 33.507812 13.179688 34.15625 C 15.839844 34.925781 18.386719 35.066406 21.566406 34.15625 C 23.679688 33.550781 25.761719 32.332031 25.761719 29.9375 L 25.761719 26.773438 L 17.378906 26.773438 L 17.378906 25.71875 L 29.957031 25.71875 C 32.398438 25.71875 33.308594 24.039062 34.15625 21.511719 C 35.03125 18.914062 34.992188 16.414062 34.15625 13.078125 C 33.550781 10.675781 32.402344 8.871094 29.957031 8.871094 Z M 22.09375 28.882812 C 22.964844 28.882812 23.667969 29.585938 23.667969 30.460938 C 23.667969 31.335938 22.964844 32.046875 22.09375 32.046875 C 21.226562 32.046875 20.519531 31.335938 20.519531 30.460938 C 20.519531 29.585938 21.226562 28.882812 22.09375 28.882812 Z M 22.09375 28.882812 "/>
<use xlink:href="#surface5" mask="url(#mask0)"/>
</g>
</svg>
