<?xml version="1.0" encoding="UTF-8"?>
<svg xmlns="http://www.w3.org/2000/svg" xmlns:xlink="http://www.w3.org/1999/xlink" width="40px" height="40px" viewBox="0 0 40 40" version="1.1">
<g id="surface1">
<path style=" stroke:none;fill-rule:nonzero;fill:rgb(33.72549%,40.392157%,43.137255%);fill-opacity:1;" d="M 35.449219 18.480469 C 35.492188 18.949219 35.523438 19.421875 35.523438 19.90625 C 35.523438 19.421875 35.492188 18.949219 35.449219 18.480469 Z M 35.449219 18.480469 "/>
<path style=" stroke:none;fill-rule:nonzero;fill:rgb(33.72549%,40.392157%,43.137255%);fill-opacity:1;" d="M 12.421875 18.398438 C 12.421875 18.398438 8.105469 34.300781 25.40625 34.441406 C 30.835938 32.417969 34.835938 27.464844 35.441406 21.492188 C 35.484375 21.078125 35.496094 20.65625 35.503906 20.234375 C 35.507812 20.125 35.523438 20.015625 35.523438 19.90625 C 35.523438 19.421875 35.492188 18.949219 35.449219 18.480469 C 30.878906 36.472656 10.65625 29.425781 12.421875 18.398438 Z M 12.421875 18.398438 "/>
<path style=" stroke:none;fill-rule:nonzero;fill:rgb(33.72549%,40.392157%,43.137255%);fill-opacity:1;" d="M 21.367188 12.492188 C 21.367188 12.492188 5.257812 7.996094 5.507812 25.558594 C 6.332031 27.683594 7.613281 29.597656 9.261719 31.171875 C 9.332031 31.238281 9.402344 31.296875 9.472656 31.363281 C 9.9375 31.792969 10.429688 32.191406 10.945312 32.5625 C 11.023438 32.621094 11.097656 32.683594 11.179688 32.738281 C 11.722656 33.109375 12.292969 33.449219 12.878906 33.746094 C 13.050781 33.835938 13.222656 33.914062 13.398438 33.996094 C 13.902344 34.234375 14.421875 34.445312 14.949219 34.628906 C 15.078125 34.671875 15.203125 34.726562 15.335938 34.769531 C 15.96875 34.960938 16.613281 35.113281 17.265625 35.226562 C 17.464844 35.257812 17.664062 35.289062 17.863281 35.316406 C 18.542969 35.414062 19.222656 35.46875 19.910156 35.476562 C 19.933594 35.476562 19.960938 35.480469 19.988281 35.480469 C 20.503906 35.480469 21.011719 35.453125 21.515625 35.402344 C 3.441406 31.089844 10.3125 10.882812 21.367188 12.492188 Z M 21.367188 12.492188 "/>
<path style=" stroke:none;fill-rule:nonzero;fill:rgb(33.72549%,40.392157%,43.137255%);fill-opacity:1;" d="M 27.648438 20.824219 C 27.648438 20.824219 31.457031 4.757812 14.304688 5.472656 C 8.550781 7.746094 4.476562 13.34375 4.476562 19.902344 C 4.484375 20.609375 4.535156 21.316406 4.636719 22.015625 C 8.25 3.835938 28.816406 9.722656 27.648438 20.824219 Z M 27.648438 20.824219 "/>
<path style=" stroke:none;fill-rule:nonzero;fill:rgb(33.72549%,40.392157%,43.137255%);fill-opacity:1;" d="M 19.410156 27.738281 C 19.410156 27.738281 35.546875 29.84375 34.535156 14.503906 C 32.339844 8.597656 26.667969 4.382812 20 4.382812 C 19.054688 4.386719 18.113281 4.472656 17.183594 4.648438 C 35.164062 6.855469 30.492188 27.894531 19.410156 27.738281 Z M 19.410156 27.738281 "/>
<path style=" stroke:none;fill-rule:nonzero;fill:rgb(30.588235%,30.980392%,31.372549%);fill-opacity:1;" d="M 24.480469 19.90625 C 24.480469 22.304688 22.53125 24.253906 20.132812 24.253906 C 17.730469 24.253906 15.785156 22.304688 15.785156 19.902344 C 15.785156 17.503906 17.730469 15.554688 20.132812 15.558594 C 22.535156 15.558594 24.480469 17.503906 24.480469 19.90625 Z M 24.480469 19.90625 "/>
</g>
</svg>
