<?xml version="1.0" encoding="UTF-8"?>
<svg xmlns="http://www.w3.org/2000/svg" xmlns:xlink="http://www.w3.org/1999/xlink" width="16px" height="16px" viewBox="0 0 16 16" version="1.1">
<g id="surface1">
<path style=" stroke:none;fill-rule:evenodd;fill:rgb(58.823529%,30.588235%,14.509804%);fill-opacity:1;" d="M 4.152344 8.957031 C 4.125 8.972656 4.097656 8.992188 4.085938 9 C 4.019531 9.054688 3.996094 9.070312 3.984375 9.070312 C 3.972656 9.070312 3.910156 9.128906 3.839844 9.199219 C 3.769531 9.269531 3.707031 9.328125 3.695312 9.328125 C 3.667969 9.328125 3.601562 9.402344 3.601562 9.429688 C 3.601562 9.445312 3.585938 9.457031 3.566406 9.457031 C 3.546875 9.457031 3.535156 9.464844 3.535156 9.484375 C 3.535156 9.5 3.523438 9.523438 3.503906 9.535156 C 3.488281 9.546875 3.472656 9.570312 3.472656 9.585938 C 3.472656 9.597656 3.457031 9.621094 3.441406 9.632812 C 3.421875 9.644531 3.40625 9.667969 3.40625 9.683594 C 3.40625 9.699219 3.402344 9.710938 3.390625 9.710938 C 3.382812 9.710938 3.375 9.726562 3.375 9.742188 C 3.375 9.761719 3.367188 9.777344 3.359375 9.777344 C 3.351562 9.777344 3.34375 9.785156 3.34375 9.800781 C 3.34375 9.8125 3.335938 9.824219 3.328125 9.824219 C 3.320312 9.824219 3.3125 9.839844 3.3125 9.855469 C 3.3125 9.875 3.304688 9.886719 3.296875 9.886719 C 3.289062 9.886719 3.28125 9.902344 3.28125 9.921875 C 3.28125 9.9375 3.273438 9.953125 3.265625 9.953125 C 3.253906 9.953125 3.246094 9.96875 3.246094 9.992188 C 3.246094 10.015625 3.242188 10.03125 3.230469 10.03125 C 3.222656 10.03125 3.214844 10.058594 3.214844 10.089844 C 3.214844 10.121094 3.210938 10.140625 3.199219 10.136719 C 3.191406 10.128906 3.183594 10.152344 3.183594 10.191406 C 3.183594 10.226562 3.175781 10.257812 3.167969 10.257812 C 3.160156 10.257812 3.152344 10.296875 3.152344 10.351562 C 3.152344 10.40625 3.144531 10.449219 3.136719 10.449219 C 3.125 10.449219 3.121094 10.503906 3.121094 10.589844 C 3.121094 10.683594 3.125 10.71875 3.136719 10.703125 C 3.148438 10.6875 3.152344 10.699219 3.152344 10.75 C 3.152344 10.800781 3.148438 10.816406 3.132812 10.804688 C 3.117188 10.796875 3.117188 10.800781 3.132812 10.816406 C 3.144531 10.828125 3.152344 10.851562 3.152344 10.867188 C 3.152344 10.882812 3.160156 10.894531 3.167969 10.894531 C 3.175781 10.894531 3.183594 10.925781 3.183594 10.960938 C 3.183594 10.996094 3.191406 11.023438 3.199219 11.023438 C 3.207031 11.023438 3.214844 11.035156 3.214844 11.050781 C 3.214844 11.074219 3.214844 11.078125 3.199219 11.054688 C 3.191406 11.042969 3.183594 11.039062 3.183594 11.050781 C 3.183594 11.0625 3.191406 11.074219 3.199219 11.078125 C 3.207031 11.085938 3.214844 11.105469 3.214844 11.121094 C 3.214844 11.136719 3.222656 11.152344 3.230469 11.152344 C 3.242188 11.152344 3.246094 11.164062 3.246094 11.183594 C 3.246094 11.21875 3.3125 11.34375 3.332031 11.34375 C 3.339844 11.34375 3.34375 11.355469 3.34375 11.371094 C 3.34375 11.386719 3.359375 11.410156 3.375 11.425781 C 3.394531 11.4375 3.40625 11.457031 3.40625 11.472656 C 3.40625 11.484375 3.421875 11.507812 3.441406 11.519531 C 3.457031 11.53125 3.472656 11.554688 3.472656 11.566406 C 3.472656 11.578125 3.5 11.613281 3.535156 11.648438 C 3.570312 11.683594 3.601562 11.71875 3.601562 11.730469 C 3.601562 11.753906 3.773438 11.921875 3.800781 11.921875 C 3.8125 11.921875 3.824219 11.933594 3.824219 11.949219 C 3.824219 11.964844 3.84375 11.988281 3.867188 12 C 3.890625 12.015625 3.929688 12.042969 3.953125 12.066406 C 3.976562 12.09375 4.003906 12.113281 4.015625 12.113281 C 4.027344 12.113281 4.054688 12.132812 4.078125 12.160156 C 4.105469 12.1875 4.132812 12.207031 4.148438 12.207031 C 4.160156 12.207031 4.179688 12.222656 4.191406 12.238281 C 4.203125 12.257812 4.226562 12.273438 4.238281 12.273438 C 4.253906 12.273438 4.273438 12.285156 4.289062 12.304688 C 4.300781 12.320312 4.324219 12.335938 4.339844 12.335938 C 4.355469 12.335938 4.367188 12.34375 4.367188 12.351562 C 4.367188 12.359375 4.378906 12.367188 4.394531 12.367188 C 4.414062 12.367188 4.433594 12.382812 4.449219 12.398438 C 4.460938 12.417969 4.484375 12.433594 4.5 12.433594 C 4.515625 12.433594 4.527344 12.4375 4.527344 12.449219 C 4.527344 12.457031 4.542969 12.464844 4.558594 12.464844 C 4.578125 12.464844 4.59375 12.472656 4.59375 12.480469 C 4.59375 12.488281 4.605469 12.496094 4.625 12.496094 C 4.640625 12.496094 4.65625 12.503906 4.65625 12.511719 C 4.65625 12.519531 4.671875 12.527344 4.6875 12.527344 C 4.707031 12.527344 4.71875 12.535156 4.71875 12.542969 C 4.71875 12.554688 4.742188 12.558594 4.773438 12.558594 C 4.8125 12.558594 4.816406 12.5625 4.800781 12.574219 C 4.78125 12.589844 4.78125 12.589844 4.8125 12.589844 C 4.832031 12.59375 4.847656 12.597656 4.847656 12.609375 C 4.847656 12.617188 4.863281 12.625 4.878906 12.625 C 4.894531 12.625 4.914062 12.632812 4.921875 12.640625 C 4.925781 12.648438 4.949219 12.65625 4.96875 12.65625 C 4.992188 12.65625 5.007812 12.664062 5.007812 12.671875 C 5.007812 12.679688 5.023438 12.6875 5.039062 12.6875 C 5.058594 12.6875 5.070312 12.695312 5.070312 12.703125 C 5.070312 12.710938 5.09375 12.71875 5.121094 12.71875 C 5.144531 12.71875 5.167969 12.726562 5.167969 12.734375 C 5.167969 12.746094 5.183594 12.753906 5.199219 12.753906 C 5.21875 12.753906 5.230469 12.757812 5.230469 12.769531 C 5.230469 12.777344 5.253906 12.785156 5.28125 12.785156 C 5.304688 12.785156 5.328125 12.792969 5.328125 12.800781 C 5.328125 12.808594 5.347656 12.816406 5.375 12.816406 C 5.402344 12.816406 5.425781 12.824219 5.425781 12.832031 C 5.425781 12.839844 5.445312 12.847656 5.472656 12.847656 C 5.5 12.847656 5.519531 12.855469 5.519531 12.863281 C 5.519531 12.871094 5.542969 12.878906 5.566406 12.878906 C 5.59375 12.878906 5.617188 12.886719 5.617188 12.894531 C 5.617188 12.90625 5.640625 12.910156 5.671875 12.910156 C 5.703125 12.910156 5.730469 12.917969 5.734375 12.929688 C 5.742188 12.9375 5.765625 12.945312 5.792969 12.945312 C 5.816406 12.945312 5.84375 12.953125 5.847656 12.960938 C 5.851562 12.96875 5.882812 12.976562 5.914062 12.976562 C 5.941406 12.976562 5.96875 12.984375 5.96875 12.992188 C 5.96875 13 5.996094 13.007812 6.03125 13.007812 C 6.066406 13.007812 6.097656 13.015625 6.097656 13.023438 C 6.097656 13.03125 6.125 13.039062 6.160156 13.039062 C 6.195312 13.039062 6.226562 13.046875 6.230469 13.054688 C 6.238281 13.066406 6.277344 13.070312 6.316406 13.070312 C 6.359375 13.070312 6.402344 13.082031 6.414062 13.09375 C 6.433594 13.109375 6.433594 13.109375 6.425781 13.09375 C 6.417969 13.078125 6.425781 13.070312 6.449219 13.070312 C 6.464844 13.070312 6.476562 13.078125 6.472656 13.089844 C 6.464844 13.097656 6.484375 13.105469 6.519531 13.105469 C 6.550781 13.105469 6.578125 13.109375 6.585938 13.121094 C 6.589844 13.128906 6.601562 13.136719 6.609375 13.136719 C 6.617188 13.136719 6.621094 13.128906 6.617188 13.121094 C 6.609375 13.109375 6.621094 13.105469 6.640625 13.105469 C 6.660156 13.105469 6.667969 13.109375 6.664062 13.121094 C 6.65625 13.128906 6.699219 13.136719 6.777344 13.136719 C 6.851562 13.136719 6.894531 13.140625 6.886719 13.152344 C 6.882812 13.164062 6.933594 13.167969 7.03125 13.167969 C 7.128906 13.167969 7.183594 13.171875 7.175781 13.183594 C 7.167969 13.195312 7.21875 13.199219 7.308594 13.199219 C 7.390625 13.199219 7.457031 13.207031 7.464844 13.214844 C 7.46875 13.226562 7.488281 13.230469 7.507812 13.230469 C 7.542969 13.230469 7.542969 13.230469 7.511719 13.214844 C 7.492188 13.207031 7.527344 13.203125 7.617188 13.203125 C 7.707031 13.203125 7.738281 13.207031 7.710938 13.214844 C 7.691406 13.222656 7.832031 13.230469 8.03125 13.226562 C 8.230469 13.226562 8.363281 13.222656 8.328125 13.214844 C 8.277344 13.207031 8.300781 13.203125 8.414062 13.203125 C 8.507812 13.199219 8.558594 13.207031 8.550781 13.214844 C 8.546875 13.226562 8.550781 13.230469 8.558594 13.230469 C 8.566406 13.230469 8.578125 13.226562 8.585938 13.214844 C 8.589844 13.207031 8.65625 13.199219 8.734375 13.199219 C 8.828125 13.199219 8.863281 13.195312 8.847656 13.183594 C 8.828125 13.171875 8.835938 13.167969 8.871094 13.167969 C 8.910156 13.167969 8.914062 13.171875 8.894531 13.183594 C 8.882812 13.191406 8.878906 13.199219 8.890625 13.199219 C 8.902344 13.199219 8.914062 13.191406 8.921875 13.183594 C 8.925781 13.175781 8.984375 13.167969 9.054688 13.167969 C 9.136719 13.167969 9.167969 13.164062 9.152344 13.152344 C 9.136719 13.140625 9.160156 13.136719 9.234375 13.136719 C 9.296875 13.136719 9.34375 13.128906 9.34375 13.121094 C 9.34375 13.109375 9.390625 13.105469 9.453125 13.105469 C 9.527344 13.105469 9.554688 13.097656 9.535156 13.089844 C 9.515625 13.074219 9.523438 13.074219 9.558594 13.070312 C 9.582031 13.070312 9.597656 13.078125 9.59375 13.089844 C 9.585938 13.097656 9.589844 13.105469 9.597656 13.105469 C 9.609375 13.105469 9.617188 13.097656 9.617188 13.089844 C 9.617188 13.078125 9.652344 13.070312 9.695312 13.070312 C 9.738281 13.070312 9.777344 13.066406 9.777344 13.054688 C 9.777344 13.046875 9.804688 13.039062 9.839844 13.039062 C 9.875 13.039062 9.902344 13.03125 9.902344 13.023438 C 9.902344 13.015625 9.933594 13.007812 9.96875 13.007812 C 10 13.007812 10.035156 13 10.039062 12.992188 C 10.046875 12.984375 10.074219 12.976562 10.105469 12.976562 C 10.136719 12.976562 10.160156 12.96875 10.160156 12.960938 C 10.160156 12.953125 10.183594 12.945312 10.207031 12.945312 C 10.238281 12.945312 10.253906 12.9375 10.246094 12.929688 C 10.242188 12.917969 10.269531 12.910156 10.316406 12.910156 C 10.363281 12.910156 10.402344 12.90625 10.40625 12.894531 C 10.414062 12.886719 10.433594 12.878906 10.457031 12.878906 C 10.476562 12.878906 10.5 12.871094 10.503906 12.863281 C 10.507812 12.855469 10.527344 12.847656 10.546875 12.847656 C 10.5625 12.847656 10.589844 12.839844 10.609375 12.832031 C 10.625 12.824219 10.65625 12.808594 10.671875 12.800781 C 10.6875 12.792969 10.71875 12.785156 10.734375 12.785156 C 10.753906 12.785156 10.769531 12.777344 10.769531 12.769531 C 10.769531 12.757812 10.785156 12.753906 10.808594 12.753906 C 10.828125 12.753906 10.851562 12.746094 10.855469 12.734375 C 10.863281 12.726562 10.878906 12.71875 10.898438 12.71875 C 10.914062 12.71875 10.929688 12.710938 10.929688 12.703125 C 10.929688 12.695312 10.949219 12.6875 10.976562 12.6875 C 11.003906 12.6875 11.023438 12.679688 11.023438 12.671875 C 11.023438 12.664062 11.039062 12.65625 11.054688 12.65625 C 11.074219 12.65625 11.089844 12.648438 11.089844 12.640625 C 11.089844 12.632812 11.101562 12.625 11.121094 12.625 C 11.136719 12.625 11.152344 12.617188 11.152344 12.609375 C 11.152344 12.597656 11.167969 12.59375 11.183594 12.59375 C 11.203125 12.59375 11.214844 12.585938 11.214844 12.574219 C 11.214844 12.566406 11.230469 12.558594 11.25 12.558594 C 11.269531 12.558594 11.300781 12.546875 11.324219 12.53125 C 11.347656 12.515625 11.390625 12.492188 11.421875 12.480469 C 11.449219 12.464844 11.472656 12.449219 11.472656 12.445312 C 11.472656 12.4375 11.484375 12.433594 11.5 12.433594 C 11.515625 12.433594 11.539062 12.417969 11.550781 12.398438 C 11.566406 12.382812 11.585938 12.367188 11.605469 12.367188 C 11.621094 12.367188 11.632812 12.359375 11.632812 12.351562 C 11.632812 12.34375 11.644531 12.335938 11.664062 12.335938 C 11.679688 12.335938 11.695312 12.328125 11.695312 12.320312 C 11.695312 12.3125 11.707031 12.304688 11.71875 12.304688 C 11.730469 12.304688 11.753906 12.289062 11.773438 12.273438 C 11.792969 12.253906 11.816406 12.238281 11.828125 12.238281 C 11.839844 12.238281 11.859375 12.226562 11.871094 12.207031 C 11.882812 12.191406 11.902344 12.175781 11.914062 12.175781 C 11.925781 12.175781 11.964844 12.148438 12 12.113281 C 12.039062 12.078125 12.074219 12.046875 12.082031 12.046875 C 12.105469 12.046875 12.464844 11.679688 12.464844 11.65625 C 12.464844 11.644531 12.476562 11.632812 12.496094 11.632812 C 12.515625 11.632812 12.527344 11.621094 12.527344 11.609375 C 12.527344 11.59375 12.550781 11.5625 12.574219 11.535156 C 12.601562 11.503906 12.625 11.472656 12.625 11.460938 C 12.625 11.449219 12.632812 11.441406 12.640625 11.441406 C 12.648438 11.441406 12.65625 11.425781 12.65625 11.410156 C 12.65625 11.394531 12.671875 11.371094 12.6875 11.359375 C 12.707031 11.347656 12.71875 11.320312 12.71875 11.292969 C 12.71875 11.269531 12.726562 11.246094 12.734375 11.246094 C 12.746094 11.246094 12.753906 11.234375 12.753906 11.214844 C 12.753906 11.199219 12.757812 11.183594 12.769531 11.183594 C 12.777344 11.183594 12.785156 11.15625 12.785156 11.117188 C 12.785156 11.078125 12.789062 11.058594 12.800781 11.0625 C 12.808594 11.070312 12.816406 11.050781 12.816406 11.015625 C 12.816406 10.980469 12.824219 10.960938 12.832031 10.96875 C 12.839844 10.972656 12.847656 10.960938 12.847656 10.9375 C 12.847656 10.914062 12.855469 10.894531 12.863281 10.894531 C 12.871094 10.894531 12.878906 10.886719 12.878906 10.878906 C 12.878906 10.871094 12.871094 10.867188 12.863281 10.871094 C 12.855469 10.878906 12.847656 10.867188 12.847656 10.847656 C 12.847656 10.828125 12.855469 10.820312 12.863281 10.824219 C 12.875 10.832031 12.878906 10.804688 12.878906 10.753906 C 12.878906 10.707031 12.886719 10.671875 12.894531 10.671875 C 12.90625 10.671875 12.910156 10.660156 12.910156 10.644531 C 12.910156 10.621094 12.910156 10.621094 12.894531 10.640625 C 12.886719 10.65625 12.878906 10.636719 12.878906 10.574219 C 12.878906 10.511719 12.886719 10.496094 12.894531 10.511719 C 12.90625 10.527344 12.910156 10.527344 12.910156 10.515625 C 12.910156 10.507812 12.90625 10.492188 12.894531 10.488281 C 12.886719 10.484375 12.878906 10.441406 12.878906 10.398438 C 12.878906 10.347656 12.875 10.320312 12.863281 10.328125 C 12.855469 10.335938 12.847656 10.308594 12.847656 10.265625 C 12.847656 10.226562 12.839844 10.191406 12.832031 10.191406 C 12.824219 10.191406 12.816406 10.167969 12.816406 10.136719 C 12.816406 10.101562 12.808594 10.082031 12.800781 10.089844 C 12.789062 10.09375 12.785156 10.078125 12.785156 10.050781 C 12.785156 10.023438 12.777344 10 12.769531 10 C 12.757812 10 12.753906 9.984375 12.753906 9.96875 C 12.753906 9.949219 12.746094 9.9375 12.734375 9.9375 C 12.726562 9.9375 12.71875 9.921875 12.71875 9.90625 C 12.71875 9.886719 12.710938 9.871094 12.703125 9.863281 C 12.695312 9.859375 12.6875 9.839844 12.6875 9.820312 C 12.6875 9.804688 12.679688 9.792969 12.671875 9.800781 C 12.664062 9.804688 12.65625 9.796875 12.65625 9.777344 C 12.65625 9.757812 12.648438 9.742188 12.640625 9.742188 C 12.632812 9.742188 12.625 9.730469 12.625 9.710938 C 12.625 9.691406 12.617188 9.683594 12.609375 9.6875 C 12.597656 9.695312 12.59375 9.6875 12.59375 9.671875 C 12.59375 9.660156 12.585938 9.648438 12.574219 9.648438 C 12.566406 9.648438 12.558594 9.628906 12.558594 9.605469 C 12.558594 9.578125 12.550781 9.5625 12.527344 9.554688 C 12.511719 9.550781 12.496094 9.539062 12.496094 9.523438 C 12.496094 9.511719 12.46875 9.472656 12.433594 9.441406 C 12.398438 9.40625 12.367188 9.371094 12.367188 9.363281 C 12.367188 9.355469 12.347656 9.335938 12.324219 9.320312 C 12.300781 9.304688 12.246094 9.253906 12.207031 9.214844 C 12.164062 9.171875 12.121094 9.136719 12.113281 9.136719 C 12.089844 9.136719 12.058594 9.105469 12.042969 9.066406 C 12.039062 9.050781 12.023438 9.039062 12.007812 9.039062 C 11.996094 9.039062 11.984375 9.03125 11.984375 9.023438 C 11.984375 9.015625 11.972656 9.007812 11.957031 9.007812 C 11.925781 9.007812 11.867188 8.96875 11.878906 8.957031 C 11.898438 8.941406 11.785156 8.929688 11.769531 8.945312 C 11.757812 8.953125 11.726562 8.992188 11.703125 9.027344 C 11.421875 9.441406 10.945312 9.878906 10.429688 10.203125 C 10.300781 10.28125 9.890625 10.496094 9.867188 10.496094 C 9.855469 10.496094 9.808594 10.515625 9.644531 10.589844 C 9.613281 10.605469 9.550781 10.660156 9.507812 10.710938 C 8.871094 11.480469 7.015625 11.457031 6.472656 10.675781 C 6.4375 10.621094 6.40625 10.601562 6.28125 10.550781 C 5.488281 10.234375 4.742188 9.652344 4.292969 9.003906 C 4.234375 8.921875 4.222656 8.914062 4.152344 8.957031 "/>
<path style=" stroke:none;fill-rule:evenodd;fill:rgb(85.882353%,64.313725%,35.686275%);fill-opacity:1;" d="M 7.449219 5.664062 C 7.234375 5.675781 6.957031 5.703125 6.800781 5.726562 C 6.527344 5.769531 6.214844 5.828125 6.070312 5.863281 C 6.019531 5.878906 5.945312 5.894531 5.910156 5.902344 C 5.765625 5.933594 5.375 6.070312 5.125 6.175781 C 5.011719 6.226562 4.980469 6.242188 4.832031 6.328125 C 4.757812 6.371094 4.671875 6.417969 4.640625 6.4375 C 4.5 6.515625 4.320312 6.660156 4.339844 6.679688 C 4.351562 6.691406 4.75 6.878906 4.835938 6.914062 C 4.882812 6.929688 4.933594 6.953125 4.953125 6.957031 C 4.992188 6.976562 5.117188 7.019531 5.214844 7.046875 C 5.257812 7.058594 5.304688 7.074219 5.324219 7.085938 C 5.34375 7.097656 5.371094 7.105469 5.390625 7.105469 C 5.410156 7.105469 5.4375 7.109375 5.453125 7.117188 C 5.480469 7.132812 5.824219 7.214844 5.992188 7.246094 C 6.042969 7.257812 6.140625 7.277344 6.207031 7.289062 C 6.929688 7.425781 8.015625 7.476562 8.871094 7.410156 C 9.339844 7.375 10.097656 7.253906 10.335938 7.175781 C 10.375 7.164062 10.421875 7.152344 10.433594 7.152344 C 10.449219 7.152344 10.496094 7.140625 10.539062 7.128906 C 10.582031 7.113281 10.667969 7.089844 10.726562 7.070312 C 10.789062 7.050781 10.855469 7.03125 10.871094 7.023438 C 10.890625 7.015625 10.960938 6.992188 11.03125 6.96875 C 11.253906 6.890625 11.269531 6.882812 11.488281 6.773438 L 11.695312 6.667969 L 11.644531 6.621094 C 11.617188 6.597656 11.535156 6.539062 11.460938 6.488281 C 11.351562 6.414062 11.277344 6.371094 11.058594 6.257812 C 10.839844 6.144531 10.574219 6.046875 10.105469 5.90625 C 9.976562 5.867188 9.503906 5.765625 9.3125 5.738281 C 8.832031 5.664062 8.027344 5.632812 7.449219 5.664062 M 3.753906 9.257812 C 3.722656 9.292969 3.699219 9.320312 3.703125 9.324219 C 3.707031 9.328125 3.734375 9.304688 3.769531 9.273438 C 3.800781 9.242188 3.824219 9.210938 3.820312 9.207031 C 3.816406 9.203125 3.785156 9.226562 3.753906 9.257812 M 11.496094 9.285156 L 11.449219 9.335938 L 11.5 9.289062 C 11.527344 9.261719 11.550781 9.238281 11.550781 9.238281 C 11.550781 9.226562 11.539062 9.234375 11.496094 9.285156 M 4.609375 9.398438 C 4.636719 9.429688 4.664062 9.457031 4.671875 9.457031 C 4.675781 9.457031 4.652344 9.429688 4.625 9.398438 C 4.59375 9.371094 4.566406 9.34375 4.5625 9.34375 C 4.558594 9.34375 4.578125 9.371094 4.609375 9.398438 M 11.351562 9.445312 L 11.289062 9.511719 L 11.355469 9.449219 C 11.417969 9.390625 11.429688 9.375 11.417969 9.375 C 11.417969 9.375 11.386719 9.40625 11.351562 9.445312 M 11.109375 9.683594 L 11.0625 9.734375 L 11.117188 9.6875 C 11.144531 9.664062 11.167969 9.640625 11.167969 9.636719 C 11.167969 9.625 11.15625 9.636719 11.109375 9.683594 M 3.128906 10.710938 C 3.125 10.726562 3.121094 10.753906 3.121094 10.773438 C 3.121094 10.796875 3.128906 10.792969 3.136719 10.753906 C 3.152344 10.699219 3.148438 10.667969 3.128906 10.710938 M 9.429688 10.789062 L 9.367188 10.855469 L 9.4375 10.792969 C 9.472656 10.757812 9.503906 10.726562 9.503906 10.726562 C 9.503906 10.710938 9.488281 10.726562 9.429688 10.789062 M 12.789062 11.085938 C 12.789062 11.105469 12.796875 11.121094 12.804688 11.121094 C 12.820312 11.121094 12.820312 11.074219 12.800781 11.066406 C 12.792969 11.058594 12.785156 11.070312 12.789062 11.085938 M 9.34375 13.117188 C 9.34375 13.125 9.363281 13.128906 9.382812 13.132812 C 9.40625 13.132812 9.425781 13.128906 9.425781 13.121094 C 9.425781 13.109375 9.40625 13.105469 9.382812 13.105469 C 9.363281 13.105469 9.34375 13.109375 9.34375 13.117188 M 7.097656 13.183594 C 7.101562 13.191406 7.121094 13.199219 7.136719 13.199219 C 7.152344 13.199219 7.171875 13.191406 7.175781 13.183594 C 7.183594 13.175781 7.164062 13.167969 7.136719 13.167969 C 7.105469 13.167969 7.089844 13.175781 7.097656 13.183594 M 8.832031 13.175781 C 8.832031 13.191406 8.878906 13.195312 8.898438 13.183594 C 8.914062 13.171875 8.90625 13.167969 8.875 13.167969 C 8.851562 13.167969 8.832031 13.171875 8.832031 13.175781 M 7.515625 13.214844 C 7.546875 13.230469 7.726562 13.222656 7.742188 13.207031 C 7.746094 13.203125 7.6875 13.199219 7.613281 13.199219 C 7.523438 13.203125 7.492188 13.207031 7.515625 13.214844 M 8.273438 13.207031 C 8.289062 13.21875 8.484375 13.234375 8.472656 13.21875 C 8.46875 13.210938 8.421875 13.203125 8.363281 13.203125 C 8.308594 13.199219 8.269531 13.203125 8.273438 13.207031 "/>
<path style=" stroke:none;fill-rule:evenodd;fill:rgb(87.45098%,87.45098%,87.45098%);fill-opacity:1;" d="M 7.496094 3.679688 C 7.484375 3.695312 7.503906 3.699219 7.625 3.699219 C 8.234375 3.699219 8.480469 3.695312 8.472656 3.679688 C 8.457031 3.65625 7.578125 3.660156 7.566406 3.683594 C 7.554688 3.699219 7.550781 3.699219 7.550781 3.683594 C 7.550781 3.660156 7.511719 3.65625 7.496094 3.679688 M 7.03125 3.710938 C 7.023438 3.726562 7.074219 3.734375 7.222656 3.734375 C 7.355469 3.734375 7.386719 3.726562 7.359375 3.710938 C 7.328125 3.691406 7.042969 3.691406 7.03125 3.710938 M 8.648438 3.714844 C 8.644531 3.71875 8.714844 3.726562 8.808594 3.726562 C 8.921875 3.730469 8.976562 3.722656 8.96875 3.714844 C 8.957031 3.695312 8.65625 3.695312 8.648438 3.714844 M 6.710938 3.742188 C 6.699219 3.761719 6.742188 3.765625 6.886719 3.761719 C 7.046875 3.757812 7.03125 3.726562 6.867188 3.726562 C 6.789062 3.726562 6.71875 3.734375 6.710938 3.742188 M 9.054688 3.742188 C 9.054688 3.757812 9.078125 3.761719 9.222656 3.765625 C 9.257812 3.765625 9.292969 3.773438 9.296875 3.777344 C 9.308594 3.792969 9.34375 3.796875 9.445312 3.792969 C 9.558594 3.789062 9.535156 3.761719 9.414062 3.761719 C 9.355469 3.761719 9.300781 3.753906 9.289062 3.746094 C 9.269531 3.722656 9.054688 3.722656 9.054688 3.742188 M 6.480469 3.777344 C 6.480469 3.792969 6.558594 3.800781 6.632812 3.792969 C 6.667969 3.789062 6.6875 3.777344 6.675781 3.773438 C 6.65625 3.757812 6.480469 3.761719 6.480469 3.777344 M 6.261719 3.8125 C 6.253906 3.824219 6.273438 3.828125 6.34375 3.828125 C 6.410156 3.828125 6.433594 3.824219 6.425781 3.808594 C 6.414062 3.789062 6.273438 3.792969 6.261719 3.8125 M 7.183594 3.824219 C 6.730469 3.863281 6.371094 3.90625 6.179688 3.949219 C 6.136719 3.960938 6.046875 3.980469 5.976562 3.992188 C 5.667969 4.054688 5.425781 4.113281 5.425781 4.132812 C 5.425781 4.136719 5.402344 4.144531 5.375 4.144531 C 5.328125 4.144531 4.984375 4.253906 4.902344 4.296875 C 4.828125 4.332031 4.648438 4.398438 4.628906 4.398438 C 4.617188 4.398438 4.609375 4.40625 4.609375 4.414062 C 4.609375 4.425781 4.597656 4.433594 4.585938 4.433594 C 4.539062 4.433594 4.226562 4.617188 4.199219 4.65625 C 4.195312 4.664062 4.171875 4.671875 4.152344 4.671875 C 4.128906 4.671875 4.109375 4.679688 4.101562 4.691406 C 4.09375 4.703125 4.070312 4.722656 4.046875 4.738281 C 4.011719 4.761719 3.957031 4.808594 3.863281 4.894531 C 3.847656 4.910156 3.820312 4.925781 3.804688 4.933594 C 3.789062 4.9375 3.777344 4.953125 3.777344 4.964844 C 3.773438 4.976562 3.75 5.007812 3.71875 5.039062 C 3.6875 5.070312 3.625 5.171875 3.578125 5.261719 L 3.496094 5.433594 L 3.496094 5.632812 C 3.496094 5.835938 3.53125 5.953125 3.621094 6.0625 C 3.632812 6.078125 3.652344 6.109375 3.664062 6.136719 C 3.699219 6.207031 3.976562 6.46875 4.125 6.566406 L 4.257812 6.65625 L 4.363281 6.570312 C 4.722656 6.277344 5.398438 5.976562 5.992188 5.839844 C 6.027344 5.832031 6.121094 5.8125 6.199219 5.792969 C 6.390625 5.746094 6.75 5.6875 6.953125 5.664062 C 7.039062 5.65625 7.183594 5.640625 7.273438 5.628906 C 7.53125 5.597656 8.503906 5.605469 8.800781 5.636719 C 9.3125 5.695312 9.464844 5.714844 9.734375 5.773438 C 10.1875 5.871094 10.386719 5.929688 10.808594 6.09375 C 11.078125 6.195312 11.46875 6.417969 11.65625 6.574219 C 11.734375 6.636719 11.796875 6.65625 11.816406 6.625 C 11.820312 6.613281 11.878906 6.574219 11.941406 6.53125 C 12.046875 6.464844 12.335938 6.191406 12.335938 6.160156 C 12.335938 6.15625 12.355469 6.128906 12.375 6.101562 C 12.398438 6.078125 12.414062 6.046875 12.414062 6.039062 C 12.417969 6.03125 12.4375 5.984375 12.460938 5.9375 C 12.601562 5.667969 12.503906 5.242188 12.242188 4.984375 C 12.03125 4.777344 11.964844 4.722656 11.894531 4.6875 C 11.859375 4.667969 11.796875 4.628906 11.757812 4.601562 C 11.71875 4.574219 11.671875 4.542969 11.652344 4.539062 C 11.632812 4.53125 11.609375 4.515625 11.597656 4.503906 C 11.589844 4.492188 11.566406 4.480469 11.550781 4.480469 C 11.535156 4.480469 11.453125 4.445312 11.367188 4.398438 C 11.28125 4.355469 11.203125 4.320312 11.195312 4.320312 C 11.183594 4.320312 11.15625 4.308594 11.132812 4.296875 C 11.105469 4.285156 11.0625 4.269531 11.03125 4.261719 C 11 4.257812 10.972656 4.246094 10.96875 4.238281 C 10.960938 4.230469 10.941406 4.222656 10.921875 4.222656 C 10.902344 4.222656 10.878906 4.21875 10.871094 4.210938 C 10.851562 4.191406 10.699219 4.144531 10.660156 4.144531 C 10.644531 4.144531 10.625 4.136719 10.613281 4.128906 C 10.605469 4.117188 10.515625 4.09375 10.414062 4.070312 C 10.3125 4.050781 10.1875 4.019531 10.136719 4.007812 C 10.082031 3.992188 9.976562 3.972656 9.894531 3.960938 C 9.816406 3.949219 9.679688 3.925781 9.59375 3.910156 C 8.929688 3.800781 7.898438 3.765625 7.183594 3.824219 M 9.5625 3.8125 C 9.566406 3.820312 9.609375 3.824219 9.65625 3.824219 C 9.710938 3.824219 9.742188 3.816406 9.734375 3.808594 C 9.730469 3.800781 9.6875 3.792969 9.640625 3.796875 C 9.59375 3.796875 9.558594 3.804688 9.5625 3.8125 M 6.085938 3.84375 C 6.082031 3.847656 6.09375 3.855469 6.109375 3.859375 C 6.152344 3.867188 6.238281 3.855469 6.238281 3.835938 C 6.238281 3.820312 6.097656 3.824219 6.085938 3.84375 M 9.765625 3.84375 C 9.761719 3.851562 9.792969 3.855469 9.839844 3.855469 C 9.882812 3.855469 9.921875 3.863281 9.921875 3.871094 C 9.921875 3.878906 9.945312 3.886719 9.976562 3.886719 C 10.007812 3.886719 10.03125 3.878906 10.03125 3.871094 C 10.03125 3.859375 10.015625 3.855469 9.984375 3.859375 C 9.957031 3.867188 9.933594 3.863281 9.921875 3.851562 C 9.902344 3.828125 9.78125 3.820312 9.765625 3.84375 M 5.9375 3.878906 C 5.9375 3.890625 5.914062 3.898438 5.867188 3.894531 C 5.832031 3.894531 5.789062 3.898438 5.777344 3.910156 C 5.765625 3.917969 5.730469 3.925781 5.703125 3.921875 C 5.671875 3.917969 5.648438 3.925781 5.648438 3.933594 C 5.648438 3.953125 5.753906 3.957031 5.765625 3.9375 C 5.769531 3.929688 5.8125 3.925781 5.859375 3.921875 C 5.902344 3.921875 5.945312 3.914062 5.953125 3.902344 C 5.957031 3.894531 5.96875 3.886719 5.972656 3.886719 C 6.03125 3.894531 6.085938 3.886719 6.0625 3.871094 C 6.027344 3.847656 5.9375 3.851562 5.9375 3.878906 M 10.089844 3.90625 C 10.09375 3.914062 10.125 3.921875 10.160156 3.921875 C 10.195312 3.921875 10.226562 3.925781 10.230469 3.9375 C 10.242188 3.953125 10.332031 3.957031 10.339844 3.941406 C 10.34375 3.933594 10.324219 3.925781 10.292969 3.925781 C 10.261719 3.921875 10.226562 3.914062 10.214844 3.90625 C 10.191406 3.882812 10.078125 3.886719 10.089844 3.90625 M 5.519531 3.96875 C 5.519531 3.976562 5.503906 3.984375 5.488281 3.984375 C 5.46875 3.984375 5.4375 3.992188 5.417969 4.003906 C 5.398438 4.015625 5.367188 4.019531 5.347656 4.019531 C 5.332031 4.015625 5.308594 4.023438 5.304688 4.03125 C 5.300781 4.039062 5.273438 4.046875 5.246094 4.046875 C 5.21875 4.046875 5.199219 4.054688 5.199219 4.070312 C 5.199219 4.085938 5.1875 4.089844 5.160156 4.085938 C 5.140625 4.082031 5.117188 4.085938 5.113281 4.09375 C 5.105469 4.105469 5.082031 4.113281 5.054688 4.113281 C 5.027344 4.113281 5.007812 4.121094 5.007812 4.128906 C 5.007812 4.136719 5.03125 4.144531 5.054688 4.144531 C 5.082031 4.144531 5.105469 4.136719 5.105469 4.132812 C 5.105469 4.125 5.128906 4.117188 5.15625 4.113281 C 5.183594 4.113281 5.210938 4.105469 5.214844 4.09375 C 5.214844 4.085938 5.234375 4.078125 5.257812 4.078125 C 5.277344 4.078125 5.296875 4.074219 5.304688 4.0625 C 5.308594 4.054688 5.332031 4.046875 5.351562 4.046875 C 5.371094 4.046875 5.394531 4.039062 5.398438 4.03125 C 5.40625 4.023438 5.4375 4.015625 5.472656 4.015625 C 5.507812 4.015625 5.539062 4.007812 5.542969 4 C 5.550781 3.992188 5.570312 3.984375 5.59375 3.984375 C 5.613281 3.984375 5.632812 3.976562 5.632812 3.96875 C 5.632812 3.960938 5.605469 3.953125 5.574219 3.957031 C 5.546875 3.957031 5.519531 3.964844 5.519531 3.96875 M 10.390625 3.96875 C 10.382812 3.984375 10.449219 4.003906 10.464844 3.992188 C 10.472656 3.984375 10.480469 3.976562 10.480469 3.96875 C 10.480469 3.953125 10.402344 3.953125 10.390625 3.96875 M 10.519531 4.003906 C 10.515625 4.007812 10.527344 4.015625 10.550781 4.015625 C 10.570312 4.015625 10.59375 4.023438 10.601562 4.03125 C 10.613281 4.054688 10.703125 4.050781 10.703125 4.03125 C 10.703125 4.019531 10.691406 4.015625 10.679688 4.023438 C 10.664062 4.027344 10.636719 4.023438 10.617188 4.011719 C 10.578125 3.988281 10.53125 3.984375 10.519531 4.003906 M 10.734375 4.0625 C 10.734375 4.074219 10.75 4.078125 10.769531 4.078125 C 10.785156 4.078125 10.800781 4.074219 10.800781 4.0625 C 10.800781 4.054688 10.785156 4.046875 10.769531 4.046875 C 10.75 4.046875 10.734375 4.054688 10.734375 4.0625 M 10.824219 4.097656 C 10.820312 4.105469 10.832031 4.113281 10.855469 4.113281 C 10.878906 4.113281 10.894531 4.105469 10.886719 4.097656 C 10.882812 4.085938 10.867188 4.078125 10.855469 4.078125 C 10.84375 4.078125 10.828125 4.085938 10.824219 4.097656 M 10.921875 4.128906 C 10.925781 4.136719 10.945312 4.144531 10.960938 4.144531 C 10.976562 4.144531 10.992188 4.136719 10.992188 4.128906 C 10.992188 4.121094 10.972656 4.117188 10.953125 4.117188 C 10.929688 4.117188 10.917969 4.121094 10.921875 4.128906 M 4.910156 4.15625 C 4.910156 4.175781 4.960938 4.1875 4.988281 4.179688 C 5 4.175781 5.003906 4.167969 5 4.160156 C 4.988281 4.140625 4.910156 4.140625 4.910156 4.15625 M 11 4.160156 C 10.996094 4.167969 11.011719 4.175781 11.039062 4.175781 C 11.066406 4.175781 11.089844 4.167969 11.089844 4.160156 C 11.089844 4.152344 11.070312 4.144531 11.050781 4.144531 C 11.027344 4.144531 11.003906 4.152344 11 4.160156 M 4.847656 4.1875 C 4.847656 4.210938 4.867188 4.222656 4.890625 4.214844 C 4.902344 4.207031 4.90625 4.199219 4.902344 4.191406 C 4.890625 4.171875 4.847656 4.171875 4.847656 4.1875 M 11.105469 4.191406 C 11.105469 4.199219 11.121094 4.207031 11.144531 4.207031 C 11.164062 4.207031 11.1875 4.214844 11.191406 4.222656 C 11.199219 4.234375 11.210938 4.238281 11.21875 4.238281 C 11.246094 4.238281 11.167969 4.1875 11.132812 4.179688 C 11.117188 4.179688 11.105469 4.183594 11.105469 4.191406 M 4.785156 4.222656 C 4.785156 4.234375 4.800781 4.238281 4.816406 4.238281 C 4.835938 4.238281 4.84375 4.234375 4.839844 4.222656 C 4.835938 4.214844 4.820312 4.207031 4.808594 4.207031 C 4.792969 4.207031 4.785156 4.214844 4.785156 4.222656 M 4.6875 4.253906 C 4.6875 4.261719 4.667969 4.273438 4.644531 4.28125 C 4.605469 4.296875 4.605469 4.300781 4.636719 4.300781 C 4.65625 4.304688 4.675781 4.296875 4.679688 4.289062 C 4.683594 4.277344 4.703125 4.273438 4.722656 4.273438 C 4.738281 4.273438 4.753906 4.265625 4.753906 4.257812 C 4.753906 4.246094 4.738281 4.238281 4.71875 4.238281 C 4.703125 4.238281 4.6875 4.246094 4.6875 4.253906 M 11.246094 4.257812 C 11.246094 4.265625 11.261719 4.273438 11.28125 4.273438 C 11.300781 4.273438 11.308594 4.265625 11.304688 4.257812 C 11.296875 4.246094 11.285156 4.238281 11.269531 4.238281 C 11.257812 4.238281 11.246094 4.246094 11.246094 4.257812 M 11.328125 4.289062 C 11.328125 4.296875 11.347656 4.304688 11.367188 4.304688 C 11.390625 4.304688 11.40625 4.3125 11.40625 4.320312 C 11.40625 4.328125 11.421875 4.335938 11.441406 4.335938 C 11.457031 4.335938 11.472656 4.34375 11.472656 4.351562 C 11.472656 4.359375 11.484375 4.367188 11.503906 4.367188 C 11.519531 4.367188 11.539062 4.375 11.542969 4.382812 C 11.558594 4.40625 11.601562 4.40625 11.601562 4.382812 C 11.601562 4.371094 11.589844 4.367188 11.574219 4.375 C 11.5625 4.378906 11.546875 4.371094 11.542969 4.359375 C 11.535156 4.34375 11.523438 4.339844 11.507812 4.34375 C 11.496094 4.347656 11.484375 4.339844 11.476562 4.328125 C 11.472656 4.3125 11.457031 4.304688 11.445312 4.308594 C 11.4375 4.316406 11.417969 4.308594 11.40625 4.296875 C 11.386719 4.269531 11.328125 4.265625 11.328125 4.289062 M 4.523438 4.328125 C 4.503906 4.339844 4.484375 4.347656 4.476562 4.339844 C 4.464844 4.335938 4.464844 4.339844 4.46875 4.347656 C 4.476562 4.359375 4.496094 4.367188 4.515625 4.367188 C 4.53125 4.367188 4.542969 4.359375 4.535156 4.351562 C 4.53125 4.34375 4.542969 4.335938 4.566406 4.335938 C 4.59375 4.335938 4.605469 4.328125 4.601562 4.320312 C 4.585938 4.296875 4.558594 4.300781 4.523438 4.328125 M 4.398438 4.394531 C 4.386719 4.40625 4.375 4.414062 4.367188 4.40625 C 4.363281 4.402344 4.34375 4.414062 4.328125 4.433594 C 4.3125 4.449219 4.308594 4.464844 4.316406 4.464844 C 4.339844 4.464844 4.464844 4.394531 4.464844 4.382812 C 4.464844 4.363281 4.414062 4.371094 4.398438 4.394531 M 11.609375 4.414062 C 11.601562 4.425781 11.609375 4.433594 11.621094 4.433594 C 11.648438 4.433594 11.726562 4.46875 11.726562 4.484375 C 11.726562 4.492188 11.738281 4.496094 11.753906 4.496094 C 11.777344 4.496094 11.777344 4.492188 11.746094 4.464844 C 11.730469 4.445312 11.703125 4.433594 11.6875 4.433594 C 11.675781 4.433594 11.664062 4.425781 11.664062 4.414062 C 11.664062 4.40625 11.652344 4.398438 11.640625 4.398438 C 11.628906 4.398438 11.613281 4.40625 11.609375 4.414062 M 4.242188 4.496094 C 4.230469 4.503906 4.210938 4.503906 4.199219 4.5 C 4.183594 4.496094 4.175781 4.503906 4.175781 4.519531 C 4.175781 4.535156 4.167969 4.542969 4.15625 4.535156 C 4.144531 4.527344 4.144531 4.53125 4.15625 4.546875 C 4.175781 4.5625 4.179688 4.5625 4.1875 4.546875 C 4.191406 4.535156 4.203125 4.527344 4.214844 4.527344 C 4.222656 4.527344 4.246094 4.515625 4.261719 4.503906 C 4.296875 4.476562 4.277344 4.472656 4.242188 4.496094 M 4.0625 4.59375 C 4.042969 4.609375 4.015625 4.625 4.003906 4.625 C 3.988281 4.625 3.984375 4.632812 3.988281 4.648438 C 3.996094 4.664062 3.992188 4.667969 3.976562 4.660156 C 3.960938 4.65625 3.953125 4.660156 3.953125 4.671875 C 3.953125 4.703125 3.996094 4.6875 4.042969 4.640625 C 4.070312 4.617188 4.101562 4.59375 4.113281 4.589844 C 4.125 4.585938 4.128906 4.578125 4.117188 4.570312 C 4.109375 4.566406 4.085938 4.574219 4.0625 4.59375 M 11.953125 4.601562 C 11.953125 4.628906 12.089844 4.734375 12.105469 4.71875 C 12.117188 4.703125 12.078125 4.664062 12.046875 4.664062 C 12.039062 4.664062 12.019531 4.648438 12.003906 4.628906 C 11.972656 4.59375 11.953125 4.582031 11.953125 4.601562 M 3.789062 4.804688 C 3.742188 4.851562 3.675781 4.921875 3.644531 4.957031 C 3.613281 4.992188 3.582031 5.015625 3.574219 5.011719 C 3.566406 5.003906 3.566406 5.007812 3.574219 5.019531 C 3.578125 5.03125 3.566406 5.054688 3.542969 5.078125 C 3.503906 5.121094 3.492188 5.152344 3.519531 5.152344 C 3.535156 5.152344 3.601562 5.066406 3.601562 5.046875 C 3.601562 5.039062 3.625 5.011719 3.652344 4.984375 C 3.679688 4.957031 3.71875 4.917969 3.738281 4.894531 C 3.753906 4.875 3.78125 4.847656 3.800781 4.839844 C 3.835938 4.816406 3.914062 4.71875 3.890625 4.71875 C 3.882812 4.71875 3.835938 4.757812 3.789062 4.804688 M 12.128906 4.761719 C 12.148438 4.785156 12.175781 4.792969 12.175781 4.769531 C 12.175781 4.761719 12.160156 4.75 12.144531 4.746094 C 12.117188 4.738281 12.113281 4.742188 12.128906 4.761719 M 12.21875 4.828125 C 12.203125 4.851562 12.269531 4.910156 12.308594 4.910156 C 12.339844 4.910156 12.339844 4.910156 12.296875 4.863281 C 12.25 4.8125 12.230469 4.808594 12.21875 4.828125 M 12.335938 4.953125 C 12.335938 4.964844 12.359375 4.988281 12.40625 5.023438 C 12.433594 5.046875 12.4375 5.046875 12.417969 5.015625 C 12.394531 4.980469 12.335938 4.933594 12.335938 4.953125 M 12.464844 5.121094 C 12.464844 5.128906 12.472656 5.136719 12.480469 5.136719 C 12.488281 5.136719 12.496094 5.148438 12.496094 5.160156 C 12.496094 5.175781 12.503906 5.179688 12.511719 5.175781 C 12.535156 5.160156 12.53125 5.144531 12.496094 5.125 C 12.476562 5.113281 12.464844 5.109375 12.464844 5.121094 M 3.464844 5.195312 C 3.453125 5.214844 3.441406 5.242188 3.441406 5.261719 C 3.441406 5.28125 3.433594 5.296875 3.425781 5.296875 C 3.414062 5.296875 3.40625 5.316406 3.40625 5.34375 C 3.40625 5.386719 3.4375 5.414062 3.441406 5.375 C 3.441406 5.367188 3.445312 5.355469 3.449219 5.347656 C 3.449219 5.339844 3.457031 5.3125 3.464844 5.285156 C 3.46875 5.257812 3.484375 5.222656 3.496094 5.214844 C 3.523438 5.195312 3.527344 5.167969 3.507812 5.167969 C 3.5 5.167969 3.480469 5.179688 3.464844 5.195312 M 12.554688 5.277344 C 12.542969 5.292969 12.597656 5.359375 12.617188 5.359375 C 12.625 5.359375 12.621094 5.351562 12.609375 5.339844 C 12.601562 5.332031 12.59375 5.308594 12.59375 5.292969 C 12.59375 5.261719 12.566406 5.253906 12.554688 5.277344 M 12.59375 5.40625 C 12.59375 5.425781 12.597656 5.441406 12.609375 5.441406 C 12.617188 5.441406 12.625 5.425781 12.625 5.40625 C 12.625 5.390625 12.617188 5.375 12.609375 5.375 C 12.597656 5.375 12.59375 5.390625 12.59375 5.40625 M 3.375 5.453125 C 3.375 5.488281 3.367188 5.523438 3.359375 5.527344 C 3.339844 5.539062 3.339844 6.527344 3.359375 6.550781 C 3.367188 6.5625 3.375 6.625 3.378906 6.691406 C 3.378906 6.761719 3.386719 6.820312 3.394531 6.824219 C 3.402344 6.832031 3.40625 6.871094 3.40625 6.921875 C 3.40625 6.96875 3.414062 7.011719 3.425781 7.015625 C 3.433594 7.019531 3.441406 7.058594 3.441406 7.097656 C 3.441406 7.132812 3.445312 7.171875 3.457031 7.175781 C 3.464844 7.179688 3.472656 7.214844 3.472656 7.25 C 3.472656 7.285156 3.480469 7.3125 3.488281 7.3125 C 3.496094 7.3125 3.503906 7.339844 3.503906 7.375 C 3.503906 7.410156 3.511719 7.441406 3.519531 7.441406 C 3.527344 7.445312 3.535156 7.472656 3.539062 7.5 C 3.542969 7.53125 3.546875 7.558594 3.554688 7.5625 C 3.5625 7.566406 3.566406 7.585938 3.566406 7.609375 C 3.566406 7.628906 3.574219 7.652344 3.585938 7.65625 C 3.59375 7.660156 3.601562 7.683594 3.601562 7.703125 C 3.601562 7.726562 3.605469 7.746094 3.617188 7.753906 C 3.625 7.757812 3.632812 7.777344 3.632812 7.800781 C 3.632812 7.820312 3.640625 7.84375 3.648438 7.847656 C 3.65625 7.851562 3.664062 7.871094 3.664062 7.890625 C 3.664062 7.90625 3.671875 7.921875 3.679688 7.921875 C 3.6875 7.921875 3.695312 7.9375 3.695312 7.960938 C 3.695312 7.980469 3.703125 8.003906 3.710938 8.007812 C 3.722656 8.011719 3.726562 8.03125 3.726562 8.050781 C 3.726562 8.066406 3.734375 8.078125 3.742188 8.078125 C 3.753906 8.078125 3.761719 8.09375 3.761719 8.113281 C 3.761719 8.128906 3.765625 8.144531 3.777344 8.144531 C 3.785156 8.144531 3.792969 8.15625 3.792969 8.175781 C 3.792969 8.191406 3.796875 8.207031 3.804688 8.210938 C 3.820312 8.21875 3.886719 8.351562 3.886719 8.378906 C 3.886719 8.390625 3.894531 8.398438 3.902344 8.398438 C 3.914062 8.398438 3.921875 8.414062 3.921875 8.433594 C 3.921875 8.449219 3.925781 8.464844 3.9375 8.464844 C 3.945312 8.464844 3.953125 8.476562 3.953125 8.496094 C 3.953125 8.511719 3.960938 8.527344 3.96875 8.527344 C 3.976562 8.527344 3.984375 8.542969 3.984375 8.558594 C 3.984375 8.578125 3.992188 8.59375 4 8.59375 C 4.007812 8.59375 4.015625 8.601562 4.015625 8.613281 C 4.015625 8.625 4.03125 8.648438 4.046875 8.667969 C 4.066406 8.6875 4.078125 8.710938 4.078125 8.71875 C 4.078125 8.730469 4.101562 8.757812 4.128906 8.785156 C 4.15625 8.8125 4.175781 8.851562 4.175781 8.867188 C 4.175781 8.886719 4.1875 8.894531 4.214844 8.894531 C 4.242188 8.894531 4.265625 8.914062 4.289062 8.949219 C 4.753906 9.617188 5.539062 10.234375 6.292969 10.523438 C 6.371094 10.550781 6.453125 10.59375 6.476562 10.617188 C 6.496094 10.636719 6.542969 10.660156 6.582031 10.667969 C 6.617188 10.679688 6.6875 10.695312 6.734375 10.710938 C 7.328125 10.882812 8.210938 10.929688 8.800781 10.816406 C 9.207031 10.742188 9.5 10.660156 9.535156 10.617188 C 9.546875 10.605469 9.632812 10.558594 9.734375 10.519531 C 10.546875 10.179688 11.242188 9.636719 11.703125 8.980469 C 11.730469 8.945312 11.769531 8.90625 11.792969 8.898438 C 11.820312 8.890625 11.847656 8.859375 11.863281 8.828125 C 11.878906 8.796875 11.902344 8.757812 11.921875 8.738281 C 11.9375 8.71875 11.953125 8.695312 11.953125 8.679688 C 11.953125 8.667969 11.960938 8.65625 11.96875 8.65625 C 11.976562 8.65625 11.984375 8.644531 11.984375 8.625 C 11.984375 8.609375 12 8.582031 12.015625 8.566406 C 12.035156 8.550781 12.046875 8.53125 12.046875 8.515625 C 12.046875 8.503906 12.054688 8.496094 12.0625 8.496094 C 12.074219 8.496094 12.078125 8.480469 12.078125 8.464844 C 12.078125 8.445312 12.085938 8.433594 12.097656 8.433594 C 12.105469 8.433594 12.113281 8.417969 12.113281 8.398438 C 12.113281 8.382812 12.121094 8.367188 12.128906 8.367188 C 12.136719 8.367188 12.144531 8.355469 12.144531 8.335938 C 12.144531 8.292969 12.183594 8.222656 12.203125 8.234375 C 12.210938 8.242188 12.210938 8.242188 12.203125 8.234375 C 12.199219 8.226562 12.203125 8.195312 12.21875 8.167969 C 12.265625 8.078125 12.273438 8.066406 12.273438 8.039062 C 12.273438 8.027344 12.277344 8.015625 12.289062 8.015625 C 12.296875 8.015625 12.304688 8 12.304688 7.984375 C 12.304688 7.964844 12.3125 7.953125 12.320312 7.953125 C 12.328125 7.953125 12.335938 7.929688 12.335938 7.902344 C 12.335938 7.878906 12.34375 7.855469 12.351562 7.855469 C 12.359375 7.855469 12.367188 7.84375 12.367188 7.824219 C 12.367188 7.808594 12.375 7.789062 12.382812 7.785156 C 12.394531 7.777344 12.398438 7.757812 12.398438 7.734375 C 12.398438 7.714844 12.40625 7.695312 12.414062 7.6875 C 12.425781 7.683594 12.433594 7.65625 12.433594 7.632812 C 12.433594 7.605469 12.4375 7.582031 12.449219 7.574219 C 12.457031 7.570312 12.464844 7.539062 12.464844 7.511719 C 12.464844 7.480469 12.46875 7.457031 12.476562 7.460938 C 12.484375 7.464844 12.492188 7.445312 12.492188 7.410156 C 12.496094 7.378906 12.503906 7.347656 12.511719 7.347656 C 12.519531 7.34375 12.527344 7.3125 12.527344 7.28125 C 12.527344 7.246094 12.535156 7.214844 12.542969 7.207031 C 12.554688 7.203125 12.558594 7.167969 12.558594 7.128906 C 12.558594 7.089844 12.566406 7.054688 12.574219 7.046875 C 12.585938 7.042969 12.59375 7.007812 12.59375 6.96875 C 12.59375 6.929688 12.597656 6.894531 12.609375 6.886719 C 12.617188 6.882812 12.625 6.832031 12.625 6.777344 C 12.625 6.71875 12.628906 6.667969 12.636719 6.664062 C 12.644531 6.660156 12.652344 6.570312 12.65625 6.46875 C 12.65625 6.363281 12.664062 6.273438 12.671875 6.265625 C 12.691406 6.246094 12.691406 5.859375 12.671875 5.847656 C 12.664062 5.84375 12.65625 5.761719 12.65625 5.65625 C 12.65625 5.550781 12.648438 5.46875 12.640625 5.464844 C 12.632812 5.457031 12.625 5.46875 12.625 5.492188 C 12.621094 5.996094 12.371094 6.375 11.839844 6.6875 C 11.773438 6.726562 11.71875 6.765625 11.714844 6.773438 C 11.710938 6.777344 11.699219 6.785156 11.6875 6.785156 C 11.664062 6.785156 11.574219 6.832031 11.511719 6.875 C 11.496094 6.886719 11.464844 6.894531 11.445312 6.894531 C 11.425781 6.894531 11.40625 6.902344 11.40625 6.910156 C 11.40625 6.921875 11.394531 6.929688 11.167969 7.019531 C 10.824219 7.160156 10.28125 7.308594 9.855469 7.382812 C 9.773438 7.398438 9.664062 7.414062 9.617188 7.425781 C 9.140625 7.507812 8.332031 7.5625 7.816406 7.546875 C 7.125 7.523438 6.730469 7.488281 6.222656 7.394531 C 5.789062 7.316406 5.691406 7.292969 5.652344 7.269531 C 5.632812 7.257812 5.597656 7.246094 5.570312 7.246094 C 5.546875 7.246094 5.46875 7.230469 5.398438 7.207031 C 5.328125 7.1875 5.242188 7.160156 5.207031 7.148438 C 5.171875 7.140625 5.136719 7.125 5.128906 7.117188 C 5.121094 7.109375 5.101562 7.105469 5.085938 7.105469 C 5.070312 7.105469 4.984375 7.074219 4.890625 7.039062 C 4.800781 7.003906 4.714844 6.96875 4.695312 6.960938 C 4.679688 6.953125 4.609375 6.921875 4.542969 6.890625 C 4.476562 6.859375 4.402344 6.824219 4.378906 6.816406 C 4.355469 6.808594 4.335938 6.792969 4.335938 6.785156 C 4.335938 6.777344 4.3125 6.761719 4.28125 6.753906 C 4.25 6.742188 4.214844 6.726562 4.203125 6.714844 C 4.191406 6.703125 4.152344 6.675781 4.113281 6.652344 C 3.847656 6.5 3.457031 6.058594 3.457031 5.914062 C 3.457031 5.902344 3.445312 5.867188 3.429688 5.839844 C 3.402344 5.785156 3.398438 5.699219 3.410156 5.472656 C 3.414062 5.429688 3.410156 5.402344 3.394531 5.394531 C 3.382812 5.390625 3.375 5.410156 3.375 5.453125 "/>
<path style=" stroke:none;fill-rule:evenodd;fill:rgb(82.352941%,70.196078%,52.54902%);fill-opacity:1;" d="M 7.480469 5.632812 C 7.015625 5.65625 6.445312 5.742188 6 5.855469 C 5.96875 5.863281 5.910156 5.878906 5.871094 5.886719 C 5.742188 5.917969 5.417969 6.027344 5.273438 6.089844 C 5.191406 6.121094 5.105469 6.15625 5.078125 6.167969 C 5.015625 6.191406 4.851562 6.273438 4.800781 6.304688 C 4.777344 6.320312 4.714844 6.359375 4.65625 6.390625 C 4.425781 6.527344 4.289062 6.644531 4.3125 6.683594 C 4.359375 6.757812 4.878906 6.980469 5.34375 7.121094 C 5.4375 7.148438 5.535156 7.175781 5.558594 7.183594 C 5.585938 7.191406 5.660156 7.210938 5.726562 7.222656 C 5.792969 7.238281 5.917969 7.261719 6 7.28125 C 6.082031 7.296875 6.199219 7.320312 6.261719 7.328125 C 6.320312 7.335938 6.375 7.347656 6.382812 7.351562 C 6.40625 7.367188 7.121094 7.4375 7.433594 7.457031 C 7.980469 7.492188 8.941406 7.453125 9.472656 7.375 C 9.882812 7.316406 10.351562 7.214844 10.632812 7.128906 C 10.675781 7.117188 10.769531 7.085938 10.839844 7.066406 C 11.046875 7.003906 11.265625 6.914062 11.503906 6.800781 C 11.664062 6.722656 11.710938 6.691406 11.710938 6.65625 C 11.710938 6.582031 11.105469 6.222656 10.753906 6.089844 C 10.574219 6.023438 10.324219 5.9375 10.230469 5.914062 C 10.1875 5.902344 10.097656 5.875 10.03125 5.859375 C 9.355469 5.675781 8.347656 5.585938 7.480469 5.632812 M 8.542969 5.664062 C 8.785156 5.679688 9.171875 5.714844 9.3125 5.738281 C 9.503906 5.765625 9.976562 5.867188 10.105469 5.90625 C 10.574219 6.046875 10.839844 6.144531 11.058594 6.257812 C 11.277344 6.371094 11.351562 6.414062 11.460938 6.488281 C 11.535156 6.539062 11.617188 6.597656 11.644531 6.621094 L 11.695312 6.667969 L 11.488281 6.773438 C 11.269531 6.882812 11.253906 6.890625 11.03125 6.96875 C 10.960938 6.992188 10.890625 7.015625 10.871094 7.023438 C 10.855469 7.03125 10.789062 7.050781 10.726562 7.070312 C 10.667969 7.089844 10.582031 7.113281 10.539062 7.128906 C 10.496094 7.140625 10.449219 7.152344 10.433594 7.152344 C 10.421875 7.152344 10.375 7.164062 10.335938 7.175781 C 10.097656 7.253906 9.339844 7.375 8.871094 7.410156 C 8.015625 7.476562 6.929688 7.425781 6.207031 7.289062 C 6.140625 7.277344 6.042969 7.257812 5.992188 7.246094 C 5.824219 7.214844 5.480469 7.132812 5.453125 7.117188 C 5.4375 7.109375 5.410156 7.105469 5.390625 7.105469 C 5.371094 7.105469 5.34375 7.097656 5.324219 7.085938 C 5.304688 7.074219 5.257812 7.058594 5.214844 7.046875 C 5.117188 7.019531 4.992188 6.976562 4.953125 6.957031 C 4.933594 6.953125 4.882812 6.929688 4.835938 6.914062 C 4.75 6.878906 4.351562 6.691406 4.339844 6.679688 C 4.320312 6.660156 4.5 6.515625 4.640625 6.4375 C 4.671875 6.417969 4.757812 6.371094 4.832031 6.328125 C 4.980469 6.242188 5.011719 6.226562 5.125 6.175781 C 5.375 6.070312 5.765625 5.933594 5.910156 5.902344 C 5.945312 5.894531 6.019531 5.878906 6.070312 5.863281 C 6.214844 5.828125 6.527344 5.769531 6.800781 5.726562 C 7.261719 5.660156 8 5.632812 8.542969 5.664062 M 4.132812 8.945312 C 4.109375 8.980469 4.121094 8.984375 4.152344 8.953125 C 4.199219 8.90625 4.246094 8.921875 4.3125 9.019531 C 4.601562 9.429688 5.09375 9.890625 5.519531 10.152344 C 5.753906 10.296875 5.707031 10.257812 5.433594 10.074219 C 5.058594 9.828125 4.648438 9.441406 4.375 9.074219 C 4.242188 8.898438 4.179688 8.867188 4.132812 8.945312 M 11.742188 8.949219 C 11.726562 8.96875 11.652344 9.058594 11.578125 9.152344 C 11.253906 9.570312 10.785156 9.976562 10.316406 10.246094 C 10.273438 10.269531 10.238281 10.292969 10.238281 10.296875 C 10.238281 10.320312 10.660156 10.050781 10.816406 9.929688 C 11.132812 9.683594 11.484375 9.324219 11.671875 9.058594 C 11.714844 8.996094 11.769531 8.9375 11.792969 8.929688 C 11.820312 8.917969 11.824219 8.914062 11.804688 8.914062 C 11.789062 8.914062 11.761719 8.929688 11.742188 8.949219 M 3.847656 9.167969 C 3.832031 9.1875 3.824219 9.199219 3.832031 9.199219 C 3.847656 9.199219 3.894531 9.152344 3.882812 9.144531 C 3.878906 9.140625 3.863281 9.148438 3.847656 9.167969 M 3.195312 10.074219 C 3.179688 10.089844 3.183594 10.128906 3.199219 10.128906 C 3.207031 10.128906 3.214844 10.113281 3.210938 10.097656 C 3.207031 10.058594 3.210938 10.058594 3.195312 10.074219 M 12.816406 10.152344 C 12.816406 10.164062 12.824219 10.175781 12.832031 10.175781 C 12.839844 10.175781 12.847656 10.164062 12.847656 10.152344 C 12.847656 10.140625 12.839844 10.128906 12.832031 10.128906 C 12.824219 10.128906 12.816406 10.140625 12.816406 10.152344 M 3.164062 10.171875 C 3.144531 10.1875 3.148438 10.238281 3.167969 10.238281 C 3.175781 10.238281 3.183594 10.222656 3.183594 10.199219 C 3.183594 10.15625 3.179688 10.152344 3.164062 10.171875 M 5.679688 10.246094 C 5.679688 10.25 5.703125 10.265625 5.730469 10.28125 L 5.785156 10.304688 L 5.742188 10.273438 C 5.707031 10.242188 5.679688 10.230469 5.679688 10.246094 M 5.792969 10.3125 C 5.792969 10.320312 5.886719 10.367188 5.902344 10.367188 C 5.90625 10.367188 5.890625 10.351562 5.863281 10.335938 C 5.816406 10.304688 5.792969 10.296875 5.792969 10.3125 M 10.121094 10.351562 C 10.074219 10.378906 10.046875 10.398438 10.050781 10.398438 C 10.066406 10.398438 10.222656 10.320312 10.222656 10.308594 C 10.222656 10.296875 10.195312 10.308594 10.121094 10.351562 M 3.128906 10.332031 C 3.113281 10.347656 3.117188 10.398438 3.136719 10.40625 C 3.144531 10.414062 3.152344 10.398438 3.148438 10.371094 C 3.144531 10.316406 3.144531 10.316406 3.128906 10.332031 M 9.960938 10.433594 C 9.933594 10.449219 9.917969 10.464844 9.925781 10.464844 C 9.941406 10.464844 10.03125 10.417969 10.03125 10.40625 C 10.03125 10.394531 10.007812 10.402344 9.960938 10.433594 M 6.160156 10.492188 C 6.269531 10.542969 6.320312 10.5625 6.328125 10.554688 C 6.335938 10.550781 6.300781 10.53125 6.253906 10.515625 C 6.128906 10.46875 6.097656 10.460938 6.160156 10.492188 M 9.722656 10.53125 C 9.585938 10.585938 9.5625 10.605469 9.515625 10.671875 C 9.363281 10.882812 9.007812 11.089844 8.625 11.191406 C 8.539062 11.210938 8.488281 11.230469 8.511719 11.230469 C 8.738281 11.234375 9.222656 10.988281 9.457031 10.75 C 9.597656 10.609375 9.625 10.589844 9.738281 10.542969 C 9.859375 10.496094 9.929688 10.464844 9.894531 10.464844 C 9.886719 10.464844 9.808594 10.496094 9.722656 10.53125 M 12.882812 10.566406 C 12.882812 10.613281 12.890625 10.636719 12.898438 10.621094 C 12.902344 10.609375 12.902344 10.574219 12.898438 10.542969 C 12.882812 10.492188 12.882812 10.492188 12.882812 10.566406 M 6.382812 10.582031 C 6.40625 10.59375 6.457031 10.644531 6.496094 10.691406 C 6.714844 10.953125 7.148438 11.1875 7.480469 11.222656 L 7.542969 11.230469 L 7.480469 11.214844 C 7.007812 11.089844 6.757812 10.953125 6.519531 10.699219 C 6.449219 10.621094 6.378906 10.558594 6.367188 10.5625 C 6.355469 10.5625 6.363281 10.570312 6.382812 10.582031 M 7.601562 11.25 C 7.628906 11.257812 7.78125 11.265625 7.9375 11.269531 L 8.214844 11.277344 L 7.984375 11.265625 C 7.855469 11.257812 7.707031 11.246094 7.648438 11.242188 C 7.5625 11.234375 7.554688 11.234375 7.601562 11.25 M 8.289062 11.246094 L 8.214844 11.257812 L 8.296875 11.257812 C 8.339844 11.261719 8.398438 11.253906 8.425781 11.246094 L 8.472656 11.234375 L 8.414062 11.234375 C 8.386719 11.238281 8.328125 11.242188 8.289062 11.246094 M 8.472656 13.214844 C 8.476562 13.222656 8.496094 13.226562 8.511719 13.21875 C 8.554688 13.210938 8.550781 13.199219 8.503906 13.199219 C 8.480469 13.199219 8.464844 13.207031 8.472656 13.214844 "/>
<path style=" stroke:none;fill-rule:evenodd;fill:rgb(76.862745%,78.039216%,77.254902%);fill-opacity:1;" d="M 7.359375 3.714844 C 7.386719 3.730469 7.332031 3.734375 7.148438 3.730469 C 7.070312 3.726562 7.011719 3.734375 7 3.746094 C 6.984375 3.757812 6.917969 3.761719 6.824219 3.761719 C 6.738281 3.761719 6.675781 3.769531 6.679688 3.777344 C 6.691406 3.792969 6.628906 3.796875 6.492188 3.792969 C 6.445312 3.789062 6.417969 3.796875 6.421875 3.804688 C 6.433594 3.828125 6.378906 3.839844 6.3125 3.828125 C 6.273438 3.824219 6.246094 3.828125 6.242188 3.839844 C 6.234375 3.851562 6.1875 3.859375 6.136719 3.859375 C 6.074219 3.859375 6.050781 3.863281 6.066406 3.871094 C 6.085938 3.886719 6.027344 3.894531 5.972656 3.886719 C 5.96875 3.886719 5.957031 3.894531 5.953125 3.902344 C 5.945312 3.914062 5.902344 3.921875 5.859375 3.921875 C 5.8125 3.925781 5.769531 3.929688 5.765625 3.9375 C 5.761719 3.945312 5.730469 3.953125 5.695312 3.953125 C 5.660156 3.953125 5.632812 3.960938 5.632812 3.96875 C 5.632812 3.976562 5.613281 3.984375 5.59375 3.984375 C 5.570312 3.984375 5.550781 3.992188 5.542969 4 C 5.539062 4.007812 5.507812 4.015625 5.472656 4.015625 C 5.4375 4.015625 5.40625 4.023438 5.398438 4.03125 C 5.394531 4.039062 5.371094 4.046875 5.351562 4.046875 C 5.332031 4.046875 5.308594 4.054688 5.304688 4.0625 C 5.296875 4.074219 5.277344 4.078125 5.257812 4.078125 C 5.234375 4.078125 5.214844 4.085938 5.214844 4.09375 C 5.210938 4.105469 5.183594 4.113281 5.15625 4.113281 C 5.128906 4.117188 5.105469 4.125 5.105469 4.132812 C 5.105469 4.136719 5.078125 4.144531 5.046875 4.144531 C 5.011719 4.144531 4.992188 4.152344 5 4.160156 C 5.011719 4.175781 4.992188 4.179688 4.929688 4.175781 C 4.90625 4.175781 4.894531 4.179688 4.902344 4.191406 C 4.914062 4.207031 4.894531 4.214844 4.851562 4.207031 C 4.839844 4.207031 4.832031 4.214844 4.839844 4.222656 C 4.84375 4.234375 4.835938 4.238281 4.816406 4.238281 C 4.800781 4.238281 4.78125 4.230469 4.777344 4.21875 C 4.773438 4.207031 4.765625 4.214844 4.757812 4.234375 C 4.753906 4.257812 4.734375 4.273438 4.71875 4.273438 C 4.703125 4.273438 4.683594 4.277344 4.679688 4.289062 C 4.675781 4.296875 4.652344 4.304688 4.628906 4.304688 C 4.609375 4.304688 4.59375 4.3125 4.601562 4.320312 C 4.605469 4.328125 4.59375 4.335938 4.566406 4.335938 C 4.542969 4.335938 4.53125 4.34375 4.535156 4.351562 C 4.542969 4.359375 4.53125 4.367188 4.511719 4.367188 C 4.492188 4.367188 4.480469 4.359375 4.488281 4.347656 C 4.496094 4.339844 4.492188 4.335938 4.484375 4.34375 C 4.472656 4.347656 4.464844 4.363281 4.464844 4.375 C 4.464844 4.402344 4.34375 4.464844 4.285156 4.464844 C 4.261719 4.464844 4.238281 4.472656 4.238281 4.480469 C 4.238281 4.488281 4.253906 4.492188 4.269531 4.484375 C 4.289062 4.476562 4.289062 4.480469 4.265625 4.5 C 4.246094 4.515625 4.222656 4.527344 4.210938 4.527344 C 4.199219 4.527344 4.191406 4.535156 4.191406 4.542969 C 4.191406 4.554688 4.183594 4.558594 4.175781 4.558594 C 4.164062 4.558594 4.164062 4.550781 4.167969 4.542969 C 4.175781 4.535156 4.164062 4.535156 4.148438 4.546875 C 4.128906 4.558594 4.117188 4.570312 4.121094 4.578125 C 4.125 4.585938 4.121094 4.59375 4.113281 4.59375 C 4.101562 4.59375 4.074219 4.613281 4.046875 4.640625 C 4.019531 4.667969 3.980469 4.6875 3.964844 4.6875 C 3.949219 4.6875 3.9375 4.695312 3.9375 4.707031 C 3.9375 4.71875 3.929688 4.722656 3.925781 4.714844 C 3.921875 4.710938 3.894531 4.734375 3.867188 4.769531 C 3.84375 4.804688 3.808594 4.839844 3.789062 4.84375 C 3.773438 4.847656 3.761719 4.855469 3.761719 4.863281 C 3.761719 4.886719 3.613281 5.023438 3.601562 5.015625 C 3.59375 5.011719 3.582031 5.015625 3.574219 5.027344 C 3.566406 5.039062 3.570312 5.039062 3.582031 5.035156 C 3.617188 5.011719 3.601562 5.070312 3.554688 5.117188 C 3.53125 5.140625 3.511719 5.171875 3.511719 5.183594 C 3.511719 5.199219 3.5 5.207031 3.488281 5.203125 C 3.476562 5.199219 3.46875 5.203125 3.472656 5.207031 C 3.480469 5.214844 3.476562 5.242188 3.46875 5.269531 C 3.460938 5.296875 3.453125 5.332031 3.449219 5.351562 C 3.445312 5.367188 3.433594 5.386719 3.429688 5.390625 C 3.394531 5.414062 3.394531 5.773438 3.429688 5.839844 C 3.445312 5.867188 3.457031 5.902344 3.457031 5.914062 C 3.457031 6.058594 3.847656 6.5 4.113281 6.652344 C 4.152344 6.675781 4.191406 6.703125 4.203125 6.714844 C 4.214844 6.726562 4.25 6.742188 4.28125 6.753906 C 4.3125 6.761719 4.335938 6.777344 4.335938 6.785156 C 4.335938 6.792969 4.355469 6.808594 4.378906 6.816406 C 4.402344 6.824219 4.476562 6.859375 4.542969 6.890625 C 4.609375 6.921875 4.679688 6.953125 4.695312 6.960938 C 4.714844 6.96875 4.800781 7.003906 4.890625 7.039062 C 4.984375 7.074219 5.070312 7.105469 5.085938 7.105469 C 5.101562 7.105469 5.121094 7.109375 5.128906 7.117188 C 5.136719 7.125 5.171875 7.140625 5.207031 7.148438 C 5.242188 7.160156 5.328125 7.1875 5.398438 7.207031 C 5.46875 7.230469 5.546875 7.246094 5.570312 7.246094 C 5.597656 7.246094 5.632812 7.257812 5.652344 7.269531 C 5.691406 7.292969 5.789062 7.316406 6.222656 7.394531 C 7.269531 7.585938 8.621094 7.597656 9.617188 7.425781 C 9.664062 7.414062 9.773438 7.398438 9.855469 7.382812 C 10.28125 7.308594 10.824219 7.160156 11.167969 7.019531 C 11.394531 6.929688 11.40625 6.921875 11.40625 6.910156 C 11.40625 6.902344 11.425781 6.894531 11.445312 6.894531 C 11.464844 6.894531 11.496094 6.886719 11.511719 6.875 C 11.574219 6.832031 11.664062 6.785156 11.6875 6.785156 C 11.699219 6.785156 11.710938 6.777344 11.714844 6.773438 C 11.71875 6.765625 11.773438 6.726562 11.839844 6.6875 C 12.199219 6.476562 12.488281 6.15625 12.578125 5.871094 C 12.613281 5.753906 12.636719 5.441406 12.609375 5.441406 C 12.601562 5.441406 12.59375 5.425781 12.59375 5.40625 C 12.59375 5.390625 12.597656 5.375 12.609375 5.375 C 12.617188 5.375 12.605469 5.359375 12.585938 5.335938 C 12.5625 5.3125 12.550781 5.285156 12.554688 5.273438 C 12.558594 5.257812 12.554688 5.246094 12.546875 5.246094 C 12.535156 5.246094 12.527344 5.230469 12.527344 5.207031 C 12.527344 5.183594 12.519531 5.171875 12.511719 5.175781 C 12.503906 5.179688 12.496094 5.175781 12.496094 5.160156 C 12.496094 5.148438 12.488281 5.136719 12.480469 5.136719 C 12.472656 5.136719 12.464844 5.117188 12.464844 5.09375 C 12.464844 5.074219 12.453125 5.050781 12.441406 5.046875 C 12.425781 5.039062 12.421875 5.027344 12.425781 5.019531 C 12.433594 5.011719 12.429688 5.007812 12.421875 5.011719 C 12.398438 5.027344 12.335938 4.972656 12.335938 4.941406 C 12.335938 4.925781 12.316406 4.910156 12.292969 4.90625 C 12.269531 4.902344 12.238281 4.882812 12.226562 4.863281 C 12.214844 4.839844 12.210938 4.832031 12.222656 4.839844 C 12.234375 4.847656 12.234375 4.839844 12.222656 4.816406 C 12.210938 4.800781 12.1875 4.785156 12.175781 4.785156 C 12.160156 4.785156 12.136719 4.773438 12.125 4.757812 C 12.109375 4.738281 12.109375 4.734375 12.125 4.742188 C 12.136719 4.75 12.144531 4.746094 12.144531 4.734375 C 12.144531 4.722656 12.128906 4.71875 12.113281 4.722656 C 12.089844 4.730469 12.054688 4.707031 11.992188 4.644531 C 11.945312 4.597656 11.894531 4.558594 11.882812 4.558594 C 11.871094 4.558594 11.851562 4.546875 11.839844 4.527344 C 11.828125 4.507812 11.796875 4.496094 11.773438 4.496094 C 11.746094 4.496094 11.726562 4.492188 11.726562 4.484375 C 11.726562 4.46875 11.648438 4.433594 11.621094 4.433594 C 11.609375 4.433594 11.601562 4.425781 11.609375 4.414062 C 11.613281 4.40625 11.601562 4.398438 11.585938 4.398438 C 11.566406 4.398438 11.554688 4.394531 11.558594 4.386719 C 11.5625 4.378906 11.546875 4.375 11.523438 4.371094 C 11.5 4.371094 11.476562 4.359375 11.476562 4.351562 C 11.472656 4.34375 11.457031 4.335938 11.4375 4.335938 C 11.421875 4.335938 11.40625 4.328125 11.40625 4.320312 C 11.40625 4.3125 11.390625 4.304688 11.367188 4.304688 C 11.347656 4.304688 11.328125 4.296875 11.328125 4.289062 C 11.328125 4.277344 11.3125 4.273438 11.289062 4.273438 C 11.265625 4.273438 11.25 4.261719 11.242188 4.238281 C 11.238281 4.222656 11.226562 4.207031 11.214844 4.207031 C 11.195312 4.207031 11.199219 4.210938 11.214844 4.222656 C 11.230469 4.234375 11.230469 4.238281 11.222656 4.238281 C 11.210938 4.238281 11.199219 4.234375 11.191406 4.222656 C 11.1875 4.214844 11.164062 4.207031 11.144531 4.207031 C 11.121094 4.207031 11.105469 4.199219 11.105469 4.191406 C 11.105469 4.183594 11.078125 4.175781 11.046875 4.175781 C 11.011719 4.175781 10.992188 4.167969 11 4.160156 C 11.003906 4.152344 10.992188 4.144531 10.96875 4.144531 C 10.949219 4.144531 10.925781 4.136719 10.921875 4.128906 C 10.914062 4.121094 10.886719 4.113281 10.863281 4.113281 C 10.835938 4.113281 10.816406 4.105469 10.824219 4.097656 C 10.828125 4.085938 10.8125 4.078125 10.785156 4.078125 C 10.757812 4.078125 10.734375 4.074219 10.734375 4.0625 C 10.734375 4.054688 10.707031 4.046875 10.671875 4.046875 C 10.636719 4.046875 10.605469 4.039062 10.601562 4.03125 C 10.59375 4.023438 10.570312 4.015625 10.550781 4.015625 C 10.523438 4.015625 10.515625 4.007812 10.523438 3.996094 C 10.53125 3.984375 10.519531 3.980469 10.488281 3.988281 C 10.460938 3.992188 10.425781 3.992188 10.40625 3.984375 C 10.390625 3.976562 10.382812 3.96875 10.390625 3.96875 C 10.402344 3.96875 10.386719 3.957031 10.363281 3.945312 C 10.335938 3.929688 10.308594 3.921875 10.296875 3.921875 C 10.289062 3.921875 10.292969 3.929688 10.3125 3.9375 C 10.339844 3.949219 10.335938 3.949219 10.292969 3.949219 C 10.265625 3.953125 10.238281 3.945312 10.230469 3.9375 C 10.226562 3.925781 10.195312 3.921875 10.164062 3.921875 C 10.125 3.921875 10.09375 3.90625 10.070312 3.886719 C 10.046875 3.867188 10.03125 3.859375 10.03125 3.871094 C 10.03125 3.878906 10.007812 3.886719 9.976562 3.886719 C 9.945312 3.886719 9.921875 3.878906 9.921875 3.871094 C 9.921875 3.863281 9.882812 3.855469 9.839844 3.855469 C 9.789062 3.855469 9.761719 3.851562 9.769531 3.839844 C 9.773438 3.828125 9.738281 3.824219 9.675781 3.824219 C 9.617188 3.824219 9.566406 3.816406 9.558594 3.808594 C 9.554688 3.796875 9.5 3.792969 9.429688 3.792969 C 9.363281 3.796875 9.304688 3.792969 9.300781 3.78125 C 9.292969 3.773438 9.238281 3.765625 9.175781 3.765625 C 9.113281 3.761719 9.0625 3.753906 9.058594 3.746094 C 9.054688 3.734375 8.976562 3.726562 8.863281 3.726562 C 8.710938 3.726562 8.671875 3.722656 8.683594 3.707031 C 8.6875 3.695312 8.679688 3.699219 8.664062 3.710938 C 8.644531 3.726562 8.636719 3.726562 8.644531 3.714844 C 8.65625 3.699219 8.527344 3.695312 8 3.695312 C 7.601562 3.699219 7.347656 3.703125 7.359375 3.714844 M 8.96875 3.832031 C 9.253906 3.859375 9.390625 3.878906 9.59375 3.910156 C 9.679688 3.925781 9.816406 3.949219 9.894531 3.960938 C 9.976562 3.972656 10.082031 3.992188 10.136719 4.007812 C 10.1875 4.019531 10.3125 4.050781 10.414062 4.070312 C 10.515625 4.09375 10.605469 4.117188 10.613281 4.128906 C 10.625 4.136719 10.644531 4.144531 10.660156 4.144531 C 10.699219 4.144531 10.851562 4.191406 10.871094 4.210938 C 10.878906 4.21875 10.902344 4.222656 10.921875 4.222656 C 10.941406 4.222656 10.960938 4.230469 10.96875 4.238281 C 10.972656 4.246094 11 4.257812 11.03125 4.261719 C 11.0625 4.269531 11.105469 4.285156 11.132812 4.296875 C 11.15625 4.308594 11.183594 4.320312 11.195312 4.320312 C 11.203125 4.320312 11.28125 4.355469 11.367188 4.398438 C 11.453125 4.445312 11.535156 4.480469 11.550781 4.480469 C 11.566406 4.480469 11.589844 4.492188 11.597656 4.503906 C 11.609375 4.515625 11.632812 4.53125 11.652344 4.539062 C 11.671875 4.542969 11.71875 4.574219 11.757812 4.601562 C 11.796875 4.628906 11.859375 4.667969 11.894531 4.6875 C 11.964844 4.722656 12.03125 4.777344 12.242188 4.984375 C 12.503906 5.242188 12.601562 5.667969 12.460938 5.9375 C 12.4375 5.984375 12.417969 6.03125 12.414062 6.039062 C 12.414062 6.046875 12.398438 6.078125 12.375 6.101562 C 12.355469 6.128906 12.335938 6.15625 12.335938 6.160156 C 12.335938 6.191406 12.046875 6.464844 11.941406 6.53125 C 11.878906 6.574219 11.820312 6.613281 11.816406 6.625 C 11.804688 6.644531 11.738281 6.644531 11.71875 6.621094 C 11.703125 6.609375 11.703125 6.617188 11.707031 6.644531 C 11.714844 6.6875 11.6875 6.710938 11.503906 6.800781 C 11.265625 6.914062 11.046875 7.003906 10.839844 7.066406 C 10.769531 7.085938 10.675781 7.117188 10.632812 7.128906 C 10.351562 7.214844 9.882812 7.316406 9.472656 7.375 C 8.941406 7.453125 7.980469 7.492188 7.433594 7.457031 C 7.121094 7.4375 6.40625 7.367188 6.382812 7.351562 C 6.375 7.347656 6.320312 7.335938 6.261719 7.328125 C 6.199219 7.320312 6.082031 7.296875 6 7.28125 C 5.917969 7.261719 5.792969 7.238281 5.726562 7.222656 C 5.660156 7.210938 5.585938 7.191406 5.558594 7.183594 C 5.535156 7.175781 5.4375 7.148438 5.34375 7.121094 C 4.878906 6.980469 4.359375 6.757812 4.3125 6.683594 C 4.289062 6.644531 4.425781 6.527344 4.65625 6.390625 C 4.714844 6.359375 4.777344 6.320312 4.800781 6.304688 C 4.820312 6.292969 4.882812 6.261719 4.933594 6.238281 C 4.984375 6.214844 5.023438 6.191406 5.023438 6.183594 C 5.023438 6.148438 4.527344 6.4375 4.363281 6.570312 L 4.257812 6.65625 L 4.125 6.566406 C 3.976562 6.46875 3.699219 6.207031 3.664062 6.136719 C 3.652344 6.109375 3.632812 6.078125 3.621094 6.0625 C 3.53125 5.953125 3.496094 5.835938 3.496094 5.632812 L 3.496094 5.433594 L 3.578125 5.261719 C 3.625 5.171875 3.6875 5.070312 3.71875 5.039062 C 3.75 5.007812 3.773438 4.976562 3.777344 4.964844 C 3.777344 4.953125 3.789062 4.9375 3.804688 4.933594 C 3.820312 4.925781 3.847656 4.910156 3.863281 4.894531 C 3.957031 4.808594 4.011719 4.761719 4.046875 4.738281 C 4.070312 4.722656 4.09375 4.703125 4.101562 4.691406 C 4.109375 4.679688 4.128906 4.671875 4.152344 4.671875 C 4.171875 4.671875 4.195312 4.664062 4.199219 4.65625 C 4.226562 4.617188 4.539062 4.433594 4.585938 4.433594 C 4.597656 4.433594 4.609375 4.425781 4.609375 4.414062 C 4.609375 4.40625 4.617188 4.398438 4.628906 4.398438 C 4.648438 4.398438 4.828125 4.332031 4.902344 4.296875 C 4.984375 4.253906 5.328125 4.144531 5.375 4.144531 C 5.402344 4.144531 5.425781 4.136719 5.425781 4.132812 C 5.425781 4.113281 5.667969 4.054688 5.976562 3.992188 C 6.046875 3.980469 6.136719 3.960938 6.179688 3.949219 C 6.78125 3.816406 8.195312 3.753906 8.96875 3.832031 M 7.480469 5.617188 C 7.402344 5.621094 7.539062 5.625 7.785156 5.621094 C 8.03125 5.613281 8.234375 5.609375 8.238281 5.605469 C 8.25 5.597656 7.636719 5.605469 7.480469 5.617188 M 8.363281 5.613281 C 8.355469 5.625 8.925781 5.671875 8.9375 5.660156 C 8.941406 5.65625 8.847656 5.644531 8.730469 5.632812 C 8.617188 5.625 8.488281 5.609375 8.445312 5.605469 C 8.40625 5.601562 8.367188 5.605469 8.363281 5.613281 M 7.105469 5.648438 L 7.046875 5.660156 L 7.105469 5.660156 C 7.136719 5.660156 7.199219 5.65625 7.246094 5.648438 L 7.335938 5.636719 L 7.246094 5.636719 C 7.199219 5.636719 7.136719 5.640625 7.105469 5.648438 M 6.816406 5.679688 L 6.742188 5.691406 L 6.808594 5.691406 C 6.84375 5.691406 6.910156 5.6875 6.960938 5.679688 L 7.046875 5.667969 L 6.96875 5.667969 C 6.925781 5.667969 6.855469 5.675781 6.816406 5.679688 M 9.105469 5.6875 C 9.285156 5.714844 9.390625 5.714844 9.230469 5.6875 C 9.164062 5.675781 9.078125 5.667969 9.039062 5.667969 C 8.984375 5.667969 9 5.671875 9.105469 5.6875 M 6.542969 5.722656 C 6.355469 5.753906 6.109375 5.808594 6.0625 5.824219 C 6.042969 5.832031 5.984375 5.84375 5.9375 5.855469 C 5.753906 5.894531 5.433594 5.996094 5.445312 6.011719 C 5.449219 6.015625 5.53125 5.992188 5.625 5.960938 C 5.722656 5.929688 5.832031 5.898438 5.871094 5.886719 C 5.910156 5.878906 5.96875 5.863281 6 5.855469 C 6.140625 5.820312 6.359375 5.773438 6.535156 5.742188 C 6.640625 5.726562 6.730469 5.707031 6.734375 5.703125 C 6.746094 5.691406 6.667969 5.699219 6.542969 5.722656 M 9.390625 5.722656 C 9.414062 5.726562 9.515625 5.746094 9.621094 5.769531 C 9.726562 5.789062 9.824219 5.808594 9.839844 5.804688 C 9.886719 5.804688 9.464844 5.714844 9.40625 5.714844 C 9.367188 5.714844 9.363281 5.71875 9.390625 5.722656 M 9.945312 5.832031 C 9.988281 5.84375 10.066406 5.867188 10.121094 5.882812 C 10.699219 6.039062 11.210938 6.269531 11.601562 6.550781 C 11.648438 6.585938 11.675781 6.597656 11.65625 6.578125 C 11.570312 6.480469 11.078125 6.195312 10.808594 6.09375 C 10.484375 5.96875 10.371094 5.929688 10.121094 5.863281 C 9.941406 5.816406 9.816406 5.792969 9.945312 5.832031 M 5.238281 6.082031 C 5.160156 6.117188 5.082031 6.152344 5.0625 6.160156 L 5.03125 6.175781 L 5.0625 6.167969 C 5.097656 6.164062 5.410156 6.035156 5.421875 6.023438 C 5.445312 6 5.363281 6.027344 5.238281 6.082031 M 4.207031 8.90625 C 4.230469 8.910156 4.257812 8.921875 4.273438 8.933594 C 4.292969 8.949219 4.292969 8.949219 4.273438 8.925781 C 4.261719 8.910156 4.234375 8.898438 4.210938 8.898438 L 4.167969 8.898438 L 4.207031 8.90625 M 4.476562 9.207031 C 4.492188 9.234375 4.527344 9.273438 4.554688 9.296875 C 4.582031 9.324219 4.578125 9.3125 4.539062 9.265625 C 4.453125 9.167969 4.4375 9.152344 4.476562 9.207031 M 11.445312 9.300781 L 11.398438 9.351562 L 11.453125 9.304688 C 11.480469 9.277344 11.503906 9.253906 11.503906 9.253906 C 11.503906 9.242188 11.492188 9.25 11.445312 9.300781 M 11.214844 9.546875 L 11.0625 9.703125 L 11.21875 9.550781 C 11.304688 9.46875 11.375 9.398438 11.375 9.394531 C 11.375 9.382812 11.355469 9.402344 11.214844 9.546875 M 4.800781 9.558594 C 4.875 9.636719 4.9375 9.695312 4.941406 9.695312 C 4.949219 9.695312 4.890625 9.636719 4.816406 9.558594 C 4.742188 9.484375 4.675781 9.425781 4.671875 9.425781 C 4.667969 9.425781 4.726562 9.484375 4.800781 9.558594 M 4.976562 9.71875 C 4.976562 9.71875 5 9.742188 5.027344 9.769531 L 5.078125 9.816406 L 5.03125 9.765625 C 4.988281 9.714844 4.976562 9.703125 4.976562 9.71875 M 10.96875 9.78125 L 10.921875 9.832031 L 10.972656 9.785156 C 11 9.757812 11.023438 9.734375 11.023438 9.734375 C 11.023438 9.71875 11.011719 9.730469 10.96875 9.78125 M 10.824219 9.890625 C 10.726562 9.96875 10.695312 10 10.761719 9.957031 C 10.820312 9.914062 10.921875 9.824219 10.910156 9.824219 C 10.90625 9.824219 10.867188 9.855469 10.824219 9.890625 M 5.191406 9.898438 C 5.203125 9.921875 5.296875 9.988281 5.296875 9.980469 C 5.296875 9.976562 5.269531 9.953125 5.238281 9.925781 C 5.203125 9.902344 5.183594 9.890625 5.191406 9.898438 M 5.3125 9.988281 C 5.3125 9.996094 5.332031 10.011719 5.359375 10.03125 C 5.386719 10.050781 5.40625 10.0625 5.40625 10.058594 C 5.40625 10.054688 5.386719 10.035156 5.359375 10.015625 C 5.332031 9.996094 5.3125 9.984375 5.3125 9.988281 M 5.550781 10.148438 C 5.550781 10.15625 5.675781 10.238281 5.691406 10.238281 C 5.699219 10.238281 5.6875 10.230469 5.671875 10.21875 C 5.59375 10.167969 5.550781 10.140625 5.550781 10.148438 M 5.953125 10.375 C 5.953125 10.386719 6.113281 10.46875 6.121094 10.460938 C 6.125 10.457031 6.085938 10.433594 6.039062 10.410156 C 5.992188 10.386719 5.953125 10.371094 5.953125 10.375 M 9.9375 10.433594 C 9.90625 10.449219 9.886719 10.464844 9.894531 10.464844 C 9.910156 10.464844 10 10.417969 10 10.40625 C 10 10.398438 10 10.398438 9.9375 10.433594 M 6.519531 10.699219 C 7.230469 11.460938 8.972656 11.441406 9.519531 10.664062 C 9.550781 10.621094 9.558594 10.597656 9.542969 10.613281 C 9.480469 10.667969 9.226562 10.738281 8.800781 10.816406 C 8.210938 10.929688 7.328125 10.882812 6.734375 10.710938 C 6.6875 10.695312 6.617188 10.679688 6.582031 10.671875 C 6.546875 10.660156 6.496094 10.632812 6.464844 10.605469 C 6.363281 10.515625 6.390625 10.5625 6.519531 10.699219 "/>
</g>
</svg>
